<svg width="30" height="31" viewBox="0 0 30 31" fill="none" xmlns="http://www.w3.org/2000/svg">
<path d="M15.2002 14.0875C15.0752 14.075 14.9252 14.075 14.7877 14.0875C11.8127 13.9875 9.4502 11.55 9.4502 8.55C9.4502 5.4875 11.9252 3 15.0002 3C18.0627 3 20.5502 5.4875 20.5502 8.55C20.5377 11.55 18.1752 13.9875 15.2002 14.0875Z" stroke="white" stroke-width="2" stroke-linecap="round" stroke-linejoin="round"/>
<path d="M8.9499 18.7C5.9249 20.725 5.9249 24.025 8.9499 26.0375C12.3874 28.3375 18.0249 28.3375 21.4624 26.0375C24.4874 24.0125 24.4874 20.7125 21.4624 18.7C18.0374 16.4125 12.3999 16.4125 8.9499 18.7Z" stroke="white" stroke-width="2" stroke-linecap="round" stroke-linejoin="round"/>
</svg>
