<svg width="30" height="31" viewBox="0 0 30 31" fill="none" xmlns="http://www.w3.org/2000/svg">
<path d="M10.2722 4.875H21.2499C24.9999 4.875 27.4999 6.75 27.4999 11.125V19.875C27.4999 24.25 24.9999 26.125 21.2499 26.125C21.2499 26.125 21.3777 26.125 18.9687 26.125" stroke="white" stroke-width="1.83994" stroke-miterlimit="10" stroke-linecap="round" stroke-linejoin="round"/>
<path d="M21.25 11.7499L17.3375 14.8749C16.05 15.8999 13.9375 15.8999 12.65 14.8749L11.1477 13.4571" stroke="white" stroke-width="1.83994" stroke-miterlimit="10" stroke-linecap="round" stroke-linejoin="round"/>
<path d="M16.7426 24.6226C16.6393 24.9501 16.4603 25.2638 16.2022 25.5426C15.9442 25.8214 15.6464 26.0676 15.2906 26.2755C14.6897 26.6262 14.0864 26.8261 13.4596 26.8784C12.8418 26.9337 12.2131 26.8653 11.5761 26.6644C10.648 26.3715 9.72505 25.8402 8.81929 25.0642C7.91354 24.2882 7.05659 23.3575 6.25755 22.275C5.45228 21.1805 4.72744 20.0213 4.07681 18.7855C3.43814 17.5434 2.90483 16.2846 2.47686 15.009C2.058 13.7363 1.78472 12.5095 1.67236 11.3434C1.56287 10.1683 1.65742 9.10758 1.95599 8.16124C2.15121 7.54249 2.44701 6.98548 2.83765 6.50842C3.23115 6.02226 3.7377 5.62179 4.36351 5.31898C5.12674 4.92945 5.85269 4.84833 6.52604 5.06078C6.78082 5.14116 7.01838 5.27615 7.21141 5.45711C7.41355 5.64095 7.57116 5.87076 7.6603 6.15902L8.83257 9.80056C8.92459 10.0797 8.97685 10.3263 8.99559 10.5524C9.01719 10.7693 9.0024 10.9747 8.94785 11.1476C8.87895 11.366 8.74636 11.5643 8.55293 11.7334C8.36861 11.9053 8.12682 12.0692 7.83954 12.2187L6.92118 12.7193C6.78951 12.7878 6.70669 12.8918 6.66076 13.0374C6.63779 13.1102 6.6268 13.1767 6.62203 13.2553C6.62636 13.3367 6.63643 13.3999 6.6374 13.4602C6.70645 13.8122 6.86509 14.2924 7.11617 14.8919C7.37636 15.4943 7.66097 16.1143 7.98198 16.7459C8.32119 17.3832 8.65368 17.9783 9.00676 18.54C9.35361 19.0896 9.65875 19.4861 9.91645 19.7475C9.95621 19.78 10.0022 19.8245 10.0573 19.8719C10.1215 19.9222 10.1914 19.9543 10.2733 19.9801C10.428 20.0289 10.5635 20.0116 10.6952 19.9431L11.602 19.4789C11.9013 19.3231 12.1742 19.2192 12.4179 19.176C12.6674 19.1146 12.8968 19.117 13.1243 19.1887C13.2972 19.2433 13.4677 19.3371 13.642 19.4822C13.8164 19.6272 13.9883 19.8115 14.167 20.038L16.5043 23.1266C16.6892 23.365 16.7927 23.6078 16.821 23.8669C16.8402 24.1231 16.823 24.3678 16.7426 24.6226Z" stroke="white" stroke-width="1.40446" stroke-miterlimit="10"/>
</svg>
