<svg width="30" height="31" viewBox="0 0 30 31" fill="none" xmlns="http://www.w3.org/2000/svg">
<path d="M12.5 21.6875H7.7625C3.55 21.6875 2.5 20.6375 2.5 16.425V8.92504C2.5 4.71254 3.55 3.66254 7.7625 3.66254H20.925C25.1375 3.66254 26.1875 4.71254 26.1875 8.92504" stroke="white" stroke-width="1.875" stroke-linecap="round" stroke-linejoin="round"/>
<path d="M12.5 27.3374V21.6874" stroke="white" stroke-width="1.875" stroke-linecap="round" stroke-linejoin="round"/>
<path d="M2.5 16.6874H12.5" stroke="white" stroke-width="1.875" stroke-linecap="round" stroke-linejoin="round"/>
<path d="M8.42499 27.3375H12.5" stroke="white" stroke-width="1.875" stroke-linecap="round" stroke-linejoin="round"/>
<path d="M27.5 16.5001V23.6376C27.5 26.6001 26.7625 27.3376 23.8 27.3376H19.3625C16.4 27.3376 15.6625 26.6001 15.6625 23.6376V16.5001C15.6625 13.5376 16.4 12.8001 19.3625 12.8001H23.8C26.7625 12.8001 27.5 13.5376 27.5 16.5001Z" stroke="white" stroke-width="1.875" stroke-linecap="round" stroke-linejoin="round"/>
<path d="M21.5556 23.3125H21.5669" stroke="white" stroke-width="2.5" stroke-linecap="round" stroke-linejoin="round"/>
</svg>
