<svg width="30" height="31" viewBox="0 0 30 31" fill="none" xmlns="http://www.w3.org/2000/svg">
<path d="M10 3V6.75" stroke="white" stroke-width="1.875" stroke-miterlimit="10" stroke-linecap="round" stroke-linejoin="round"/>
<path d="M20 3V6.75" stroke="white" stroke-width="1.875" stroke-miterlimit="10" stroke-linecap="round" stroke-linejoin="round"/>
<path d="M26.25 17.5375V11.125C26.25 7.375 24.375 4.875 20 4.875H10C5.625 4.875 3.75 7.375 3.75 11.125V21.75C3.75 25.5 5.625 28 10 28H18.35" stroke="white" stroke-width="1.875" stroke-miterlimit="10" stroke-linecap="round" stroke-linejoin="round"/>
<path d="M22.9762 26.9641C25.0296 26.9641 26.6942 25.2995 26.6942 23.2462C26.6942 21.1928 25.0296 19.5282 22.9762 19.5282C20.9229 19.5282 19.2583 21.1928 19.2583 23.2462C19.2583 25.2995 20.9229 26.9641 22.9762 26.9641Z" stroke="white" stroke-width="1.74278" stroke-linecap="round" stroke-linejoin="round"/>
<path d="M27.3912 27.6612L26.2294 26.4994" stroke="white" stroke-width="1.74278" stroke-linecap="round" stroke-linejoin="round"/>
<path d="M8.75 14.25H20.0256" stroke="white" stroke-width="2.299" stroke-miterlimit="10" stroke-linecap="round" stroke-linejoin="round"/>
<path d="M8.75 20.5H14.0409" stroke="white" stroke-width="2.3832" stroke-miterlimit="10" stroke-linecap="round" stroke-linejoin="round"/>
</svg>
