<svg width="26" height="26" viewBox="0 0 26 26" fill="none" xmlns="http://www.w3.org/2000/svg">
<path d="M18.2375 0.499969H7.76255C3.21255 0.499969 0.500046 3.21247 0.500046 7.76247V18.225C0.500046 22.7875 3.21255 25.5 7.76255 25.5H18.225C22.775 25.5 25.4875 22.7875 25.4875 18.2375V7.76247C25.5 3.21247 22.7875 0.499969 18.2375 0.499969ZM12.4125 14.9125L7.76255 19.5625H10.5C11.0125 19.5625 11.4375 19.9875 11.4375 20.5C11.4375 21.0125 11.0125 21.4375 10.5 21.4375H5.50005C5.37505 21.4375 5.25005 21.4125 5.13755 21.3625C4.91255 21.2625 4.72505 21.0875 4.62505 20.85C4.58755 20.7375 4.56255 20.625 4.56255 20.5V15.5C4.56255 14.9875 4.98755 14.5625 5.50005 14.5625C6.01255 14.5625 6.43755 14.9875 6.43755 15.5V18.2375L11.0875 13.5875C11.45 13.225 12.05 13.225 12.4125 13.5875C12.775 13.95 12.775 14.55 12.4125 14.9125ZM21.4375 10.5C21.4375 11.0125 21.0125 11.4375 20.5 11.4375C19.9875 11.4375 19.5625 11.0125 19.5625 10.5V7.76247L14.9125 12.4125C14.725 12.6 14.4875 12.6875 14.25 12.6875C14.0125 12.6875 13.775 12.6 13.5875 12.4125C13.225 12.05 13.225 11.45 13.5875 11.0875L18.2375 6.43747H15.5C14.9875 6.43747 14.5625 6.01247 14.5625 5.49997C14.5625 4.98747 14.9875 4.56247 15.5 4.56247H20.5C20.625 4.56247 20.7375 4.58747 20.8625 4.63747C21.0875 4.73747 21.275 4.91247 21.375 5.14997C21.4125 5.26247 21.4375 5.37497 21.4375 5.49997V10.5Z" fill="#E4E4E4"/>
</svg>
