<svg width="30" height="31" viewBox="0 0 30 31" fill="none" xmlns="http://www.w3.org/2000/svg">
<path d="M10 28H20C25.025 28 25.925 25.9875 26.1875 23.5375L27.125 13.5375C27.4625 10.4875 26.5875 8 21.25 8H8.75003C3.41253 8 2.53753 10.4875 2.87503 13.5375L3.81253 23.5375C4.07503 25.9875 4.97503 28 10 28Z" stroke="white" stroke-width="1.875" stroke-miterlimit="10" stroke-linecap="round" stroke-linejoin="round"/>
<path d="M10 8V7C10 4.7875 10 3 14 3H16C20 3 20 4.7875 20 7V8" stroke="white" stroke-width="1.875" stroke-miterlimit="10" stroke-linecap="round" stroke-linejoin="round"/>
<path d="M17.5 16.75V18C17.5 18.0125 17.5 18.0125 17.5 18.025C17.5 19.3875 17.4875 20.5 15 20.5C12.525 20.5 12.5 19.4 12.5 18.0375V16.75C12.5 15.5 12.5 15.5 13.75 15.5H16.25C17.5 15.5 17.5 15.5 17.5 16.75Z" stroke="white" stroke-width="1.875" stroke-miterlimit="10" stroke-linecap="round" stroke-linejoin="round"/>
<path d="M27.0625 14.25C24.175 16.35 20.875 17.6 17.5 18.025" stroke="white" stroke-width="1.875" stroke-miterlimit="10" stroke-linecap="round" stroke-linejoin="round"/>
<path d="M3.27515 14.5875C6.08765 16.5125 9.26265 17.675 12.5001 18.0375" stroke="white" stroke-width="1.875" stroke-miterlimit="10" stroke-linecap="round" stroke-linejoin="round"/>
</svg>
