<svg width="28" height="31" viewBox="0 0 28 31" fill="none" xmlns="http://www.w3.org/2000/svg">
<g filter="url(#filter0_di_1_7100)">
<path d="M10.9301 18.1887C7.56013 15.9187 5.87513 14.7838 5.30404 13.348C4.83195 12.1612 4.83195 10.8388 5.30404 9.65196C5.87513 8.21623 7.56013 7.08126 10.9301 4.81131C15.0662 2.02539 17.1342 0.632422 18.851 0.75325C20.2641 0.852701 21.5687 1.5469 22.4406 2.66337C23.5 4.01982 23.5 6.51321 23.5 11.5C23.5 16.4868 23.5 18.9802 22.4406 20.3366C21.5687 21.4531 20.2641 22.1473 18.851 22.2467C17.1342 22.3676 15.0662 20.9746 10.9301 18.1887Z" fill="url(#paint0_linear_1_7100)"/>
<path d="M11.0698 17.9813C9.38074 16.8436 8.1285 15.9999 7.22571 15.262C6.32345 14.5245 5.79846 13.9146 5.53633 13.2556C5.08786 12.1282 5.08786 10.8718 5.53633 9.74436C5.79846 9.08538 6.32345 8.47548 7.22571 7.73804C8.1285 7.00015 9.38074 6.15637 11.0698 5.01866C13.142 3.62286 14.6816 2.58614 15.9175 1.9117C17.1557 1.23599 18.0491 0.947428 18.8335 1.00263C20.1759 1.09711 21.4153 1.7566 22.2436 2.81724C22.7276 3.43699 22.9874 4.33912 23.1187 5.74358C23.2497 7.14542 23.25 9.00153 23.25 11.5C23.25 13.9985 23.2497 15.8546 23.1187 17.2564C22.9874 18.6609 22.7276 19.563 22.2436 20.1828C21.4153 21.2434 20.1759 21.9029 18.8335 21.9974C18.0491 22.0526 17.1557 21.764 15.9175 21.0883C14.6816 20.4139 13.142 19.3771 11.0698 17.9813Z" stroke="#4fb109" stroke-width="0.5"/>
</g>
<defs>
<filter id="filter0_di_1_7100" x="0.949982" y="0.745972" width="26.55" height="29.5081" filterUnits="userSpaceOnUse" color-interpolation-filters="sRGB">
<feFlood flood-opacity="0" result="BackgroundImageFix"/>
<feColorMatrix in="SourceAlpha" type="matrix" values="0 0 0 0 0 0 0 0 0 0 0 0 0 0 0 0 0 0 127 0" result="hardAlpha"/>
<feOffset dy="4"/>
<feGaussianBlur stdDeviation="2"/>
<feComposite in2="hardAlpha" operator="out"/>
<feColorMatrix type="matrix" values="0 0 0 0 0 0 0 0 0 0 0 0 0 0 0 0 0 0 0.25 0"/>
<feBlend mode="normal" in2="BackgroundImageFix" result="effect1_dropShadow_1_7100"/>
<feBlend mode="normal" in="SourceGraphic" in2="effect1_dropShadow_1_7100" result="shape"/>
<feColorMatrix in="SourceAlpha" type="matrix" values="0 0 0 0 0 0 0 0 0 0 0 0 0 0 0 0 0 0 127 0" result="hardAlpha"/>
<feOffset/>
<feGaussianBlur stdDeviation="1.5"/>
<feComposite in2="hardAlpha" operator="arithmetic" k2="-1" k3="1"/>
<feColorMatrix type="matrix" values="0 0 0 0 1 0 0 0 0 1 0 0 0 0 1 0 0 0 0.6 0"/>
<feBlend mode="normal" in2="shape" result="effect2_innerShadow_1_7100"/>
</filter>
<linearGradient id="paint0_linear_1_7100" x1="-1.5" y1="23.1667" x2="35.61" y2="9.50654" gradientUnits="userSpaceOnUse">
<stop stop-color="#4fb109"/>
<stop offset="1" stop-color="#4fb109"/>
</linearGradient>
</defs>
</svg>
