<svg width="589" height="564" viewBox="0 0 589 564" fill="none" xmlns="http://www.w3.org/2000/svg">
<g filter="url(#filter0_b_0_1)">
<path d="M550.323 185.88C576.086 232.89 588.967 256.395 588.967 282C588.967 307.605 576.086 331.11 550.323 378.12L505.681 459.578C477.927 510.219 464.051 535.539 440.482 549.499C416.913 563.458 388.04 563.458 330.292 563.458L258.708 563.458C200.96 563.458 172.087 563.458 148.518 549.499C124.949 535.539 111.073 510.219 83.3195 459.578L38.6772 378.12C12.9142 331.11 0.0327148 307.605 0.0327148 282C0.0327148 256.395 12.9142 232.89 38.6772 185.88L83.3195 104.422C111.073 53.7811 124.949 28.4605 148.518 14.5011C172.087 0.541748 200.96 0.541748 258.708 0.541748L330.292 0.541748C388.04 0.541748 416.913 0.541748 440.482 14.5011C464.051 28.4605 477.927 53.7811 505.681 104.422L550.323 185.88Z" fill="url(#paint0_linear_0_1)" fill-opacity="0.2"/>
</g>
<g filter="url(#filter1_b_0_1)">
<path d="M367.066 257C374.11 269.201 377.632 275.301 377.632 282C377.632 288.699 374.11 294.799 367.066 307L352.184 332.777C345.14 344.978 341.618 351.078 335.816 354.428C330.015 357.777 322.971 357.777 308.882 357.777H279.118C265.029 357.777 257.985 357.777 252.184 354.428C246.382 351.078 242.86 344.978 235.816 332.777L220.934 307C213.89 294.799 210.368 288.699 210.368 282C210.368 275.301 213.89 269.201 220.934 257L235.816 231.223C242.86 219.022 246.382 212.922 252.184 209.572C257.985 206.223 265.029 206.223 279.118 206.223L308.882 206.223C322.971 206.223 330.015 206.223 335.816 209.572C341.618 212.922 345.14 219.022 352.184 231.223L367.066 257Z" fill="url(#paint1_linear_0_1)" fill-opacity="0.2"/>
</g>
<defs>
<filter id="filter0_b_0_1" x="-1.01729" y="-0.508252" width="591.035" height="565.017" filterUnits="userSpaceOnUse" color-interpolation-filters="sRGB">
<feFlood flood-opacity="0" result="BackgroundImageFix"/>
<feGaussianBlur in="BackgroundImageFix" stdDeviation="0.525"/>
<feComposite in2="SourceAlpha" operator="in" result="effect1_backgroundBlur_0_1"/>
<feBlend mode="normal" in="SourceGraphic" in2="effect1_backgroundBlur_0_1" result="shape"/>
</filter>
<filter id="filter1_b_0_1" x="209.317" y="205.173" width="169.365" height="153.655" filterUnits="userSpaceOnUse" color-interpolation-filters="sRGB">
<feFlood flood-opacity="0" result="BackgroundImageFix"/>
<feGaussianBlur in="BackgroundImageFix" stdDeviation="0.525"/>
<feComposite in2="SourceAlpha" operator="in" result="effect1_backgroundBlur_0_1"/>
<feBlend mode="normal" in="SourceGraphic" in2="effect1_backgroundBlur_0_1" result="shape"/>
</filter>
<linearGradient id="paint0_linear_0_1" x1="764.595" y1="-197.591" x2="-73.1913" y2="670.24" gradientUnits="userSpaceOnUse">
<stop stop-color="#EFEFEF" stop-opacity="0.6"/>
<stop offset="1" stop-color="white" stop-opacity="0.1"/>
</linearGradient>
<linearGradient id="paint1_linear_0_1" x1="427.333" y1="152.879" x2="202.493" y2="398.239" gradientUnits="userSpaceOnUse">
<stop stop-color="#EFEFEF" stop-opacity="0.6"/>
<stop offset="1" stop-color="white" stop-opacity="0.1"/>
</linearGradient>
</defs>
</svg>
