<svg width="531" height="473" viewBox="0 0 531 473" fill="none" xmlns="http://www.w3.org/2000/svg">
<mask id="path-1-inside-1_1_7079" fill="white">
<path fill-rule="evenodd" clip-rule="evenodd" d="M131.423 0.282044L205.223 128.106L201.968 129.986L128.168 2.16144L131.423 0.282044ZM329.405 343.195L403.204 471.019L399.949 472.899L326.15 345.074L329.405 343.195ZM132.993 471.343L207.05 343.37L203.797 341.487L129.739 469.461L132.993 471.343ZM148.504 235.401L0.646913 235.55L0.650699 239.309L148.508 239.16L148.504 235.401ZM329.336 130.195L403.394 2.22117L400.141 0.338498L326.083 128.312L329.336 130.195ZM530.455 235.045L391.592 235.186L391.595 238.944L530.459 238.804L530.455 235.045ZM236.1 140.814L296.779 140.815C303.357 140.815 308.097 140.818 311.868 141.189C315.58 141.555 318.139 142.263 320.376 143.554C322.613 144.846 324.505 146.708 326.678 149.74C328.886 152.82 331.258 156.923 334.548 162.62L364.887 215.17C368.177 220.867 370.543 224.973 372.107 228.425C373.646 231.823 374.313 234.393 374.313 236.976C374.313 239.559 373.646 242.129 372.107 245.527C370.544 248.979 368.177 253.085 364.887 258.782L334.548 311.331C331.258 317.029 328.886 321.132 326.678 324.212C324.505 327.244 322.613 329.106 320.376 330.397C318.139 331.689 315.58 332.397 311.868 332.763C308.097 333.134 303.357 333.137 296.779 333.137L236.1 333.137C229.521 333.137 224.782 333.134 221.01 332.763C217.298 332.397 214.739 331.689 212.502 330.397C210.265 329.106 208.373 327.244 206.2 324.212C203.992 321.132 201.62 317.029 198.331 311.331L167.991 258.782C164.702 253.085 162.335 248.979 160.771 245.527C159.232 242.129 158.565 239.559 158.565 236.976C158.565 234.393 159.232 231.823 160.771 228.425C162.335 224.973 164.702 220.867 167.991 215.17L198.331 162.62C201.62 156.923 203.992 152.82 206.2 149.74C208.373 146.708 210.265 144.846 212.502 143.554C214.739 142.263 217.298 141.555 221.01 141.189C224.782 140.818 229.521 140.814 236.1 140.814ZM195.984 161.265C202.51 149.962 205.773 144.31 211.147 141.208C216.522 138.105 223.048 138.105 236.1 138.105L296.779 138.105C309.831 138.105 316.357 138.105 321.731 141.208C327.106 144.31 330.369 149.962 336.895 161.265L367.234 213.815C373.76 225.118 377.023 230.77 377.023 236.976C377.023 243.182 373.76 248.833 367.234 260.137L336.895 312.686C330.369 323.99 327.106 329.641 321.731 332.744C316.357 335.847 309.831 335.847 296.779 335.847L236.1 335.847C223.048 335.847 216.522 335.847 211.147 332.744C205.773 329.641 202.51 323.99 195.984 312.686L165.644 260.137C159.118 248.833 155.855 243.182 155.855 236.976C155.855 230.77 159.118 225.118 165.644 213.815L195.984 161.265L195.984 161.265Z"/>
</mask>
<path d="M205.223 128.106L205.865 129.219L206.978 128.577L206.336 127.464L205.223 128.106ZM131.423 0.282044L132.536 -0.360451L131.894 -1.47329L130.781 -0.830799L131.423 0.282044ZM201.968 129.986L200.855 130.628L201.497 131.741L202.61 131.099L201.968 129.986ZM128.168 2.16144L127.526 1.0486L126.413 1.6911L127.055 2.80394L128.168 2.16144ZM403.204 471.019L403.847 472.132L404.959 471.49L404.317 470.377L403.204 471.019ZM329.405 343.195L330.518 342.553L329.875 341.44L328.762 342.082L329.405 343.195ZM399.949 472.899L398.836 473.541L399.479 474.654L400.591 474.012L399.949 472.899ZM326.15 345.074L325.507 343.962L324.394 344.604L325.037 345.717L326.15 345.074ZM207.05 343.37L208.163 344.013L208.806 342.901L207.694 342.258L207.05 343.37ZM132.993 471.343L132.349 472.456L133.461 473.099L134.105 471.987L132.993 471.343ZM203.797 341.487L204.441 340.375L203.329 339.731L202.685 340.844L203.797 341.487ZM129.739 469.461L128.627 468.817L127.983 469.929L129.096 470.573L129.739 469.461ZM0.646913 235.55L0.645621 234.265L-0.639373 234.266L-0.638083 235.551L0.646913 235.55ZM148.504 235.401L149.789 235.399L149.788 234.114L148.503 234.116L148.504 235.401ZM0.650699 239.309L-0.634297 239.31L-0.633001 240.595L0.651998 240.594L0.650699 239.309ZM148.508 239.16L148.509 240.445L149.794 240.443L149.793 239.158L148.508 239.16ZM403.394 2.22117L404.506 2.86479L405.15 1.7526L404.038 1.10898L403.394 2.22117ZM329.336 130.195L328.693 131.307L329.805 131.951L330.448 130.838L329.336 130.195ZM400.141 0.338498L400.784 -0.773694L399.672 -1.4173L399.029 -0.305125L400.141 0.338498ZM326.083 128.312L324.971 127.668L324.327 128.781L325.439 129.424L326.083 128.312ZM391.592 235.186L391.59 233.9L390.305 233.902L390.307 235.187L391.592 235.186ZM530.455 235.045L531.74 235.044L531.739 233.759L530.454 233.76L530.455 235.045ZM391.595 238.944L390.31 238.946L390.312 240.231L391.597 240.229L391.595 238.944ZM530.459 238.804L530.46 240.089L531.745 240.088L531.744 238.803L530.459 238.804ZM296.779 140.815L296.779 142.1L296.779 140.815ZM236.1 140.814L236.1 139.529L236.1 140.814ZM311.868 141.189L311.742 142.468L311.868 141.189ZM320.376 143.554L319.734 144.667L319.734 144.667L320.376 143.554ZM326.678 149.74L325.634 150.489L325.634 150.489L326.678 149.74ZM372.107 228.425L370.937 228.955L372.107 228.425ZM374.313 236.976L373.028 236.976L373.028 236.976L374.313 236.976ZM372.107 245.527L370.937 244.996L372.107 245.527ZM364.887 258.782L366 259.424L364.887 258.782ZM334.548 311.331L333.435 310.689L334.548 311.331ZM326.678 324.212L327.723 324.96L326.678 324.212ZM311.868 332.763L311.994 334.041L311.868 332.763ZM296.779 333.137L296.779 331.852L296.779 333.137ZM236.1 333.137L236.1 334.422L236.1 333.137ZM221.01 332.763L221.136 331.484L221.01 332.763ZM212.502 330.397L213.145 329.285L212.502 330.397ZM206.2 324.212L205.156 324.96L206.2 324.212ZM160.771 245.527L159.601 246.057L160.771 245.527ZM158.565 236.976L159.85 236.976L159.85 236.976L158.565 236.976ZM160.771 228.425L159.601 227.895L159.601 227.895L160.771 228.425ZM167.991 215.17L166.878 214.527L167.991 215.17ZM198.331 162.62L199.444 163.263L198.331 162.62ZM206.2 149.74L207.244 150.489L207.244 150.489L206.2 149.74ZM221.01 141.189L221.136 142.468L221.136 142.468L221.01 141.189ZM195.984 161.265L194.871 160.623L194.85 160.659L194.832 160.696L195.984 161.265ZM236.1 138.105L236.1 136.82L236.1 138.105ZM296.779 138.105L296.779 139.39L296.779 138.105ZM321.731 141.208L322.374 140.095L321.731 141.208ZM377.023 236.976L375.738 236.976L377.023 236.976ZM367.234 260.137L368.347 260.779L367.234 260.137ZM336.895 312.686L335.782 312.044L336.895 312.686ZM296.779 335.847L296.779 334.562L296.779 335.847ZM236.1 335.847L236.1 337.132L236.1 335.847ZM211.147 332.744L210.505 333.857L210.505 333.857L211.147 332.744ZM155.855 236.976L154.57 236.976L154.57 236.976L155.855 236.976ZM165.644 213.815L166.757 214.458L165.644 213.815ZM195.984 161.265L197.097 161.908L197.117 161.872L197.136 161.835L195.984 161.265ZM204.58 126.994L203.766 127.463L205.051 129.689L205.865 129.219L204.58 126.994ZM202.139 128.403L201.325 128.873L202.61 131.099L203.424 130.629L202.139 128.403ZM203.08 129.343L201.661 126.885L199.435 128.17L200.855 130.628L203.08 129.343ZM198.823 121.969L195.984 117.052L193.759 118.337L196.597 123.254L198.823 121.969ZM193.146 112.136L190.307 107.22L188.082 108.505L190.92 113.421L193.146 112.136ZM187.469 102.304L184.631 97.3872L182.405 98.6722L185.243 103.589L187.469 102.304ZM181.792 92.4709L178.954 87.5546L176.728 88.8396L179.566 93.7559L181.792 92.4709ZM176.115 82.6382L173.277 77.7219L171.051 79.0069L173.89 83.9232L176.115 82.6382ZM170.438 72.8056L167.6 67.8893L165.374 69.1743L168.213 74.0906L170.438 72.8056ZM164.761 62.9729L161.923 58.0566L159.697 59.3416L162.536 64.2579L164.761 62.9729ZM159.085 53.1403L156.246 48.224L154.02 49.509L156.859 54.4253L159.085 53.1403ZM153.408 43.3077L150.569 38.3913L148.344 39.6763L151.182 44.5927L153.408 43.3077ZM147.731 33.475L144.892 28.5587L142.667 29.8437L145.505 34.76L147.731 33.475ZM142.054 23.6424L139.215 18.726L136.99 20.011L139.828 24.9274L142.054 23.6424ZM136.377 13.8097L133.539 8.8934L131.313 10.1784L134.151 15.0947L136.377 13.8097ZM130.7 3.97708L129.281 1.51894L127.055 2.80394L128.474 5.26207L130.7 3.97708ZM128.811 3.27428L129.624 2.80443L128.339 0.578747L127.526 1.0486L128.811 3.27428ZM131.252 1.86473L132.066 1.39489L130.781 -0.830799L129.967 -0.36095L131.252 1.86473ZM130.31 0.924545L131.73 3.38271L133.955 2.09771L132.536 -0.360451L130.31 0.924545ZM134.568 8.29903L137.407 13.2153L139.632 11.9304L136.794 7.01403L134.568 8.29903ZM140.245 18.1317L143.083 23.048L145.309 21.763L142.471 16.8467L140.245 18.1317ZM145.922 27.9643L148.76 32.8806L150.986 31.5956L148.148 26.6793L145.922 27.9643ZM151.599 37.7969L154.437 42.7133L156.663 41.4283L153.824 36.512L151.599 37.7969ZM157.276 47.6296L160.114 52.5459L162.34 51.2609L159.501 46.3446L157.276 47.6296ZM162.953 57.4622L165.791 62.3785L168.017 61.0935L165.178 56.1772L162.953 57.4622ZM168.629 67.2949L171.468 72.2112L173.694 70.9262L170.855 66.0099L168.629 67.2949ZM174.306 77.1275L177.145 82.0438L179.37 80.7588L176.532 75.8425L174.306 77.1275ZM179.983 86.9602L182.822 91.8765L185.047 90.5915L182.209 85.6752L179.983 86.9602ZM185.66 96.7928L188.498 101.709L190.724 100.424L187.886 95.5078L185.66 96.7928ZM191.337 106.625L194.175 111.542L196.401 110.257L193.563 105.34L191.337 106.625ZM197.014 116.458L199.852 121.374L202.078 120.089L199.239 115.173L197.014 116.458ZM202.691 126.291L204.11 128.749L206.336 127.464L204.916 125.006L202.691 126.291ZM402.562 469.907L401.748 470.376L403.033 472.602L403.847 472.132L402.562 469.907ZM400.12 471.316L399.306 471.786L400.591 474.012L401.405 473.542L400.12 471.316ZM401.062 472.256L399.643 469.798L397.417 471.083L398.836 473.541L401.062 472.256ZM396.804 464.882L393.966 459.965L391.74 461.25L394.578 466.167L396.804 464.882ZM391.127 455.049L388.289 450.133L386.063 451.418L388.902 456.334L391.127 455.049ZM385.45 445.217L382.612 440.3L380.386 441.585L383.225 446.502L385.45 445.217ZM379.773 435.384L376.935 430.468L374.709 431.753L377.548 436.669L379.773 435.384ZM374.097 425.551L371.258 420.635L369.032 421.92L371.871 426.836L374.097 425.551ZM368.42 415.719L365.581 410.802L363.356 412.087L366.194 417.004L368.42 415.719ZM362.743 405.886L359.904 400.97L357.679 402.255L360.517 407.171L362.743 405.886ZM357.066 396.053L354.228 391.137L352.002 392.422L354.84 397.338L357.066 396.053ZM351.389 386.221L348.551 381.304L346.325 382.589L349.163 387.506L351.389 386.221ZM345.712 376.388L342.874 371.472L340.648 372.757L343.487 377.673L345.712 376.388ZM340.035 366.555L337.197 361.639L334.971 362.924L337.81 367.84L340.035 366.555ZM334.358 356.723L331.52 351.806L329.294 353.091L332.133 358.008L334.358 356.723ZM328.682 346.89L327.262 344.432L325.037 345.717L326.456 348.175L328.682 346.89ZM326.792 346.187L327.606 345.717L326.321 343.492L325.507 343.962L326.792 346.187ZM329.233 344.778L330.047 344.308L328.762 342.082L327.948 342.552L329.233 344.778ZM328.292 343.838L329.711 346.296L331.937 345.011L330.518 342.553L328.292 343.838ZM332.55 351.212L335.388 356.128L337.614 354.843L334.775 349.927L332.55 351.212ZM338.226 361.045L341.065 365.961L343.291 364.676L340.452 359.76L338.226 361.045ZM343.903 370.877L346.742 375.794L348.967 374.509L346.129 369.592L343.903 370.877ZM349.58 380.71L352.419 385.626L354.644 384.341L351.806 379.425L349.58 380.71ZM355.257 390.543L358.096 395.459L360.321 394.174L357.483 389.258L355.257 390.543ZM360.934 400.375L363.772 405.292L365.998 404.007L363.16 399.09L360.934 400.375ZM366.611 410.208L369.449 415.124L371.675 413.839L368.836 408.923L366.611 410.208ZM372.288 420.04L375.126 424.957L377.352 423.672L374.513 418.755L372.288 420.04ZM377.965 429.873L380.803 434.789L383.029 433.504L380.19 428.588L377.965 429.873ZM383.641 439.706L386.48 444.622L388.706 443.337L385.867 438.421L383.641 439.706ZM389.318 449.538L392.157 454.455L394.382 453.17L391.544 448.253L389.318 449.538ZM394.995 459.371L397.834 464.287L400.059 463.002L397.221 458.086L394.995 459.371ZM400.672 469.204L402.091 471.662L404.317 470.377L402.898 467.919L400.672 469.204ZM205.938 342.726L204.514 345.187L206.738 346.474L208.163 344.013L205.938 342.726ZM201.666 350.109L198.817 355.031L201.042 356.319L203.89 351.397L201.666 350.109ZM195.969 359.953L193.121 364.875L195.345 366.163L198.193 361.241L195.969 359.953ZM190.272 369.798L187.424 374.72L189.648 376.007L192.497 371.085L190.272 369.798ZM184.575 379.642L181.727 384.564L183.951 385.851L186.8 380.929L184.575 379.642ZM178.879 389.486L176.03 394.408L178.255 395.695L181.103 390.773L178.879 389.486ZM173.182 399.33L170.334 404.252L172.558 405.539L175.406 400.617L173.182 399.33ZM167.485 409.174L164.637 414.096L166.861 415.383L169.71 410.461L167.485 409.174ZM161.788 419.018L158.94 423.94L161.164 425.227L164.013 420.305L161.788 419.018ZM156.092 428.862L153.243 433.784L155.468 435.072L158.316 430.15L156.092 428.862ZM150.395 438.706L147.546 443.628L149.771 444.916L152.619 439.994L150.395 438.706ZM144.698 448.551L141.85 453.473L144.074 454.76L146.923 449.838L144.698 448.551ZM139.001 458.395L136.153 463.317L138.377 464.604L141.226 459.682L139.001 458.395ZM133.305 468.239L131.88 470.7L134.105 471.987L135.529 469.526L133.305 468.239ZM133.636 470.231L132.823 469.76L131.536 471.985L132.349 472.456L133.636 470.231ZM131.196 468.819L130.383 468.348L129.096 470.573L129.909 471.044L131.196 468.819ZM130.851 470.104L132.276 467.643L130.051 466.356L128.627 468.817L130.851 470.104ZM135.124 462.721L137.972 457.799L135.748 456.512L132.9 461.434L135.124 462.721ZM140.821 452.877L143.669 447.955L141.445 446.668L138.596 451.59L140.821 452.877ZM146.518 443.033L149.366 438.111L147.142 436.824L144.293 441.746L146.518 443.033ZM152.214 433.189L155.063 428.267L152.838 426.98L149.99 431.902L152.214 433.189ZM157.911 423.345L160.759 418.423L158.535 417.135L155.687 422.058L157.911 423.345ZM163.608 413.501L166.456 408.579L164.232 407.291L161.383 412.213L163.608 413.501ZM169.305 403.656L172.153 398.734L169.929 397.447L167.08 402.369L169.305 403.656ZM175.001 393.812L177.85 388.89L175.625 387.603L172.777 392.525L175.001 393.812ZM180.698 383.968L183.547 379.046L181.322 377.759L178.474 382.681L180.698 383.968ZM186.395 374.124L189.243 369.202L187.019 367.915L184.17 372.837L186.395 374.124ZM192.092 364.28L194.94 359.358L192.716 358.071L189.867 362.993L192.092 364.28ZM197.788 354.436L200.637 349.514L198.412 348.227L195.564 353.149L197.788 354.436ZM203.485 344.592L204.909 342.131L202.685 340.844L201.261 343.305L203.485 344.592ZM203.154 342.599L203.967 343.07L205.254 340.846L204.441 340.375L203.154 342.599ZM205.594 344.011L206.407 344.482L207.694 342.258L206.881 341.787L205.594 344.011ZM-0.638083 235.551L-0.637138 236.491L1.93286 236.488L1.93192 235.549L-0.638083 235.551ZM-0.635242 238.37L-0.634297 239.31L1.9357 239.307L1.93476 238.368L-0.635242 238.37ZM0.651998 240.594L3.49541 240.591L3.49282 238.021L0.649408 238.024L0.651998 240.594ZM9.18222 240.585L14.869 240.579L14.8665 238.009L9.17963 238.015L9.18222 240.585ZM20.5559 240.574L26.2427 240.568L26.2401 237.998L20.5533 238.004L20.5559 240.574ZM31.9295 240.562L37.6163 240.556L37.6137 237.986L31.9269 237.992L31.9295 240.562ZM43.3031 240.551L48.9899 240.545L48.9874 237.975L43.3005 237.981L43.3031 240.551ZM54.6768 240.539L60.3636 240.533L60.361 237.963L54.6742 237.969L54.6768 240.539ZM66.0504 240.528L71.7372 240.522L71.7346 237.952L66.0478 237.958L66.0504 240.528ZM77.424 240.516L83.1109 240.51L83.1083 237.941L77.4215 237.946L77.424 240.516ZM88.7977 240.505L94.4845 240.499L94.4819 237.929L88.7951 237.935L88.7977 240.505ZM100.171 240.493L105.858 240.488L105.856 237.918L100.169 237.923L100.171 240.493ZM111.545 240.482L117.232 240.476L117.229 237.906L111.542 237.912L111.545 240.482ZM122.919 240.47L128.605 240.465L128.603 237.895L122.916 237.9L122.919 240.47ZM134.292 240.459L139.979 240.453L139.976 237.883L134.29 237.889L134.292 240.459ZM145.666 240.447L148.509 240.445L148.507 237.875L145.663 237.877L145.666 240.447ZM149.793 239.158L149.792 238.219L147.222 238.221L147.223 239.161L149.793 239.158ZM149.79 236.339L149.789 235.399L147.219 235.402L147.22 236.342L149.79 236.339ZM148.503 234.116L145.659 234.119L145.662 236.689L148.505 236.686L148.503 234.116ZM139.973 234.124L134.286 234.13L134.288 236.7L139.975 236.694L139.973 234.124ZM128.599 234.136L122.912 234.142L122.915 236.712L128.602 236.706L128.599 234.136ZM117.225 234.147L111.539 234.153L111.541 236.723L117.228 236.717L117.225 234.147ZM105.852 234.159L100.165 234.164L100.167 236.734L105.854 236.729L105.852 234.159ZM94.4781 234.17L88.7913 234.176L88.7939 236.746L94.4807 236.74L94.4781 234.17ZM83.1044 234.182L77.4176 234.187L77.4202 236.757L83.107 236.752L83.1044 234.182ZM71.7308 234.193L66.044 234.199L66.0466 236.769L71.7334 236.763L71.7308 234.193ZM60.3572 234.205L54.6704 234.21L54.673 236.78L60.3598 236.775L60.3572 234.205ZM48.9835 234.216L43.2967 234.222L43.2993 236.792L48.9861 236.786L48.9835 234.216ZM37.6099 234.228L31.9231 234.233L31.9257 236.803L37.6125 236.798L37.6099 234.228ZM26.2363 234.239L20.5495 234.245L20.552 236.815L26.2389 236.809L26.2363 234.239ZM14.8626 234.251L9.17582 234.256L9.17842 236.826L14.8652 236.821L14.8626 234.251ZM3.48902 234.262L0.645621 234.265L0.648212 236.835L3.49162 236.832L3.48902 234.262ZM402.282 1.57755L400.858 4.03858L403.082 5.32582L404.506 2.86479L402.282 1.57755ZM398.009 8.96064L395.161 13.8827L397.385 15.1699L400.234 10.2479L398.009 8.96064ZM392.313 18.8048L389.464 23.7268L391.689 25.0141L394.537 20.092L392.313 18.8048ZM386.616 28.6489L383.767 33.5709L385.992 34.8582L388.84 29.9361L386.616 28.6489ZM380.919 38.493L378.071 43.4151L380.295 44.7023L383.143 39.7803L380.919 38.493ZM375.222 48.3371L372.374 53.2592L374.598 54.5464L377.447 49.6244L375.222 48.3371ZM369.526 58.1812L366.677 63.1033L368.902 64.3905L371.75 59.4685L369.526 58.1812ZM363.829 68.0253L360.98 72.9474L363.205 74.2347L366.053 69.3126L363.829 68.0253ZM358.132 77.8695L355.284 82.7915L357.508 84.0788L360.356 79.1567L358.132 77.8695ZM352.435 87.7136L349.587 92.6357L351.811 93.9229L354.66 89.0009L352.435 87.7136ZM346.738 97.5577L343.89 102.48L346.114 103.767L348.963 98.845L346.738 97.5577ZM341.042 107.402L338.193 112.324L340.418 113.611L343.266 108.689L341.042 107.402ZM335.345 117.246L332.497 122.168L334.721 123.455L337.569 118.533L335.345 117.246ZM329.648 127.09L328.224 129.551L330.448 130.838L331.873 128.377L329.648 127.09ZM329.98 129.083L329.167 128.612L327.879 130.836L328.693 131.307L329.98 129.083ZM327.54 127.671L326.727 127.2L325.439 129.424L326.253 129.895L327.54 127.671ZM327.195 128.956L328.619 126.495L326.395 125.207L324.971 127.668L327.195 128.956ZM331.468 121.573L334.316 116.651L332.092 115.363L329.243 120.285L331.468 121.573ZM337.164 111.728L340.013 106.806L337.788 105.519L334.94 110.441L337.164 111.728ZM342.861 101.884L345.71 96.9623L343.485 95.675L340.637 100.597L342.861 101.884ZM348.558 92.0402L351.406 87.1181L349.182 85.8309L346.334 90.753L348.558 92.0402ZM354.255 82.1961L357.103 77.274L354.879 75.9868L352.03 80.9088L354.255 82.1961ZM359.951 72.352L362.8 67.4299L360.575 66.1427L357.727 71.0647L359.951 72.352ZM365.648 62.5078L368.497 57.5858L366.272 56.2985L363.424 61.2206L365.648 62.5078ZM371.345 52.6637L374.193 47.7417L371.969 46.4544L369.121 51.3765L371.345 52.6637ZM377.042 42.8196L379.89 37.8975L377.666 36.6103L374.817 41.5324L377.042 42.8196ZM382.738 32.9755L385.587 28.0534L383.362 26.7662L380.514 31.6882L382.738 32.9755ZM388.435 23.1314L391.284 18.2093L389.059 16.9221L386.211 21.8441L388.435 23.1314ZM394.132 13.2872L396.98 8.36519L394.756 7.07795L391.908 12L394.132 13.2872ZM399.829 3.44315L401.253 0.982119L399.029 -0.305125L397.604 2.15589L399.829 3.44315ZM399.497 1.45069L400.31 1.92135L401.598 -0.303028L400.784 -0.773694L399.497 1.45069ZM401.937 2.8627L402.75 3.33336L404.038 1.10898L403.224 0.638302L401.937 2.8627ZM390.307 235.187L390.308 236.127L392.878 236.124L392.877 235.184L390.307 235.187ZM390.31 238.006L390.31 238.946L392.88 238.943L392.88 238.003L390.31 238.006ZM391.597 240.229L394.49 240.226L394.487 237.656L391.594 237.659L391.597 240.229ZM400.276 240.221L406.062 240.215L406.059 237.645L400.273 237.651L400.276 240.221ZM411.848 240.209L417.634 240.203L417.631 237.633L411.845 237.639L411.848 240.209ZM423.42 240.197L429.206 240.191L429.203 237.621L423.417 237.627L423.42 240.197ZM434.992 240.186L440.778 240.18L440.775 237.61L434.989 237.615L434.992 240.186ZM446.564 240.174L452.349 240.168L452.347 237.598L446.561 237.604L446.564 240.174ZM458.135 240.162L463.921 240.156L463.919 237.586L458.133 237.592L458.135 240.162ZM469.707 240.15L475.493 240.145L475.491 237.575L469.705 237.58L469.707 240.15ZM481.279 240.139L487.065 240.133L487.063 237.563L481.277 237.569L481.279 240.139ZM492.851 240.127L498.637 240.121L498.635 237.551L492.849 237.557L492.851 240.127ZM504.423 240.115L510.209 240.11L510.207 237.54L504.421 237.545L504.423 240.115ZM515.995 240.104L521.781 240.098L521.779 237.528L515.993 237.534L515.995 240.104ZM527.567 240.092L530.46 240.089L530.458 237.519L527.565 237.522L527.567 240.092ZM531.744 238.803L531.743 237.863L529.173 237.866L529.174 238.805L531.744 238.803ZM531.741 235.984L531.74 235.044L529.17 235.047L529.171 235.986L531.741 235.984ZM530.454 233.76L527.561 233.763L527.563 236.333L530.456 236.33L530.454 233.76ZM521.775 233.769L515.989 233.775L515.991 236.345L521.777 236.339L521.775 233.769ZM510.203 233.781L504.417 233.787L504.419 236.357L510.205 236.351L510.203 233.781ZM498.631 233.793L492.845 233.798L492.848 236.368L498.634 236.362L498.631 233.793ZM487.059 233.804L481.273 233.81L481.276 236.38L487.062 236.374L487.059 233.804ZM475.487 233.816L469.701 233.822L469.704 236.392L475.49 236.386L475.487 233.816ZM463.915 233.828L458.129 233.833L458.132 236.403L463.918 236.398L463.915 233.828ZM452.343 233.839L446.557 233.845L446.56 236.415L452.346 236.409L452.343 233.839ZM440.771 233.851L434.985 233.857L434.988 236.427L440.774 236.421L440.771 233.851ZM429.199 233.863L423.413 233.868L423.416 236.438L429.202 236.433L429.199 233.863ZM417.627 233.874L411.841 233.88L411.844 236.45L417.63 236.444L417.627 233.874ZM406.055 233.886L400.269 233.892L400.272 236.462L406.058 236.456L406.055 233.886ZM394.483 233.898L391.59 233.9L391.593 236.471L394.486 236.468L394.483 233.898ZM296.779 139.529L293.745 139.53L293.745 142.099L296.779 142.1L296.779 139.529ZM287.677 139.529L281.609 139.529L281.609 142.099L287.677 142.1L287.677 139.529ZM275.541 139.529L269.473 139.529L269.473 142.099L275.541 142.099L275.541 139.529ZM263.405 139.529L257.337 139.529L257.337 142.1L263.405 142.099L263.405 139.529ZM251.269 139.529L245.202 139.529L245.202 142.099L251.269 142.099L251.269 139.529ZM239.134 139.529L236.1 139.529L236.1 142.099L239.134 142.099L239.134 139.529ZM236.1 139.529C234.768 139.529 233.51 139.53 232.32 139.533L232.327 142.103C233.513 142.1 234.768 142.099 236.1 142.099L236.1 139.529ZM224.724 139.657C223.344 139.713 222.071 139.793 220.884 139.91L221.136 142.468C222.261 142.357 223.482 142.279 224.828 142.225L224.724 139.657ZM220.884 139.91C220.078 139.99 219.319 140.086 218.6 140.201L219.005 142.738C219.666 142.633 220.373 142.543 221.136 142.468L220.884 139.91ZM214.034 141.394C213.269 141.695 212.55 142.043 211.86 142.442L213.145 144.667C213.725 144.332 214.329 144.04 214.976 143.785L214.034 141.394ZM211.86 142.442C211.169 142.84 210.509 143.289 209.865 143.801L211.465 145.812C212.01 145.379 212.565 145.002 213.145 144.667L211.86 142.442ZM206.549 147.158C206.09 147.723 205.628 148.333 205.156 148.991L207.244 150.489C207.691 149.865 208.122 149.298 208.544 148.778L206.549 147.158ZM205.156 148.991C204.461 149.961 203.755 151.023 203.016 152.19L205.188 153.564C205.908 152.426 206.586 151.407 207.244 150.489L205.156 148.991ZM199.111 158.706C198.513 159.735 197.884 160.825 197.218 161.978L199.444 163.263C200.11 162.109 200.737 161.023 201.333 159.998L199.111 158.706ZM197.218 161.978L195.701 164.605L197.927 165.89L199.444 163.263L197.218 161.978ZM192.667 169.86L189.633 175.115L191.859 176.4L194.893 171.145L192.667 169.86ZM186.599 180.37L183.565 185.625L185.791 186.91L188.825 181.655L186.599 180.37ZM180.531 190.88L177.497 196.135L179.723 197.42L182.757 192.165L180.531 190.88ZM174.463 201.39L171.429 206.645L173.655 207.93L176.689 202.675L174.463 201.39ZM168.395 211.9L166.878 214.527L169.104 215.812L170.621 213.185L168.395 211.9ZM166.878 214.527C166.213 215.681 165.584 216.77 164.991 217.802L167.221 219.081C167.811 218.052 168.438 216.966 169.104 215.812L166.878 214.527ZM161.301 224.443C160.659 225.666 160.093 226.808 159.601 227.895L161.942 228.955C162.408 227.926 162.951 226.829 163.577 225.637L161.301 224.443ZM159.601 227.895C159.266 228.633 158.97 229.338 158.71 230.018L161.11 230.936C161.349 230.311 161.625 229.654 161.942 228.955L159.601 227.895ZM157.46 234.569C157.339 235.382 157.28 236.178 157.28 236.976L159.85 236.976C159.85 236.306 159.899 235.637 160.002 234.949L157.46 234.569ZM157.28 236.976C157.28 237.773 157.339 238.569 157.46 239.383L160.002 239.003C159.899 238.315 159.85 237.646 159.85 236.976L157.28 236.976ZM158.71 243.934C158.97 244.613 159.266 245.319 159.601 246.057L161.942 244.996C161.625 244.298 161.349 243.641 161.11 243.016L158.71 243.934ZM159.601 246.057C160.093 247.143 160.659 248.286 161.301 249.509L163.577 248.315C162.951 247.122 162.408 246.026 161.942 244.996L159.601 246.057ZM164.991 256.149C165.584 257.182 166.213 258.271 166.878 259.424L169.104 258.139C168.438 256.986 167.811 255.899 167.221 254.871L164.991 256.149ZM166.878 259.424L168.395 262.052L170.621 260.767L169.104 258.139L166.878 259.424ZM171.429 267.307L174.463 272.562L176.689 271.277L173.655 266.022L171.429 267.307ZM177.497 277.817L180.531 283.072L182.757 281.787L179.723 276.532L177.497 277.817ZM183.565 288.327L186.599 293.582L188.825 292.297L185.791 287.042L183.565 288.327ZM189.633 298.837L192.667 304.091L194.893 302.806L191.859 297.552L189.633 298.837ZM195.701 309.346L197.218 311.974L199.444 310.689L197.927 308.061L195.701 309.346ZM197.218 311.974C197.884 313.127 198.513 314.216 199.111 315.245L201.333 313.954C200.737 312.929 200.11 311.842 199.444 310.689L197.218 311.974ZM203.016 321.762C203.755 322.929 204.461 323.991 205.156 324.96L207.244 323.463C206.586 322.545 205.908 321.526 205.188 320.388L203.016 321.762ZM205.156 324.96C205.628 325.619 206.09 326.229 206.549 326.794L208.544 325.173C208.122 324.654 207.691 324.086 207.244 323.463L205.156 324.96ZM209.865 330.151C210.509 330.663 211.169 331.112 211.86 331.51L213.145 329.285C212.565 328.95 212.01 328.573 211.465 328.14L209.865 330.151ZM211.86 331.51C212.55 331.909 213.269 332.256 214.034 332.558L214.976 330.166C214.329 329.911 213.725 329.619 213.145 329.285L211.86 331.51ZM218.6 333.751C219.319 333.866 220.078 333.962 220.884 334.041L221.136 331.484C220.373 331.408 219.666 331.319 219.005 331.213L218.6 333.751ZM220.884 334.041C222.071 334.158 223.344 334.239 224.724 334.295L224.828 331.727C223.482 331.673 222.261 331.595 221.136 331.484L220.884 334.041ZM232.32 334.419C233.51 334.422 234.768 334.422 236.1 334.422L236.1 331.852C234.768 331.852 233.513 331.852 232.327 331.849L232.32 334.419ZM236.1 334.422L239.134 334.422L239.134 331.852L236.1 331.852L236.1 334.422ZM245.202 334.422L251.269 334.422L251.269 331.852L245.202 331.852L245.202 334.422ZM257.337 334.422L263.405 334.422L263.405 331.852L257.337 331.852L257.337 334.422ZM269.473 334.422L275.541 334.422L275.541 331.852L269.473 331.852L269.473 334.422ZM281.609 334.422L287.677 334.422L287.677 331.852L281.609 331.852L281.609 334.422ZM293.745 334.422L296.779 334.422L296.779 331.852L293.745 331.852L293.745 334.422ZM296.779 334.422C298.11 334.422 299.368 334.422 300.558 334.419L300.551 331.849C299.365 331.852 298.111 331.852 296.779 331.852L296.779 334.422ZM308.154 334.295C309.535 334.239 310.807 334.158 311.994 334.041L311.742 331.484C310.617 331.595 309.396 331.673 308.05 331.727L308.154 334.295ZM311.994 334.041C312.801 333.962 313.56 333.866 314.278 333.751L313.873 331.213C313.213 331.319 312.505 331.409 311.742 331.484L311.994 334.041ZM318.844 332.558C319.609 332.256 320.328 331.909 321.019 331.51L319.734 329.285C319.154 329.619 318.55 329.911 317.902 330.166L318.844 332.558ZM321.019 331.51C321.709 331.112 322.369 330.663 323.013 330.151L321.413 328.14C320.868 328.573 320.314 328.95 319.734 329.285L321.019 331.51ZM326.329 326.794C326.788 326.229 327.251 325.619 327.723 324.96L325.634 323.463C325.187 324.087 324.756 324.654 324.334 325.173L326.329 326.794ZM327.723 324.96C328.418 323.991 329.124 322.929 329.862 321.762L327.69 320.388C326.97 321.526 326.292 322.545 325.634 323.463L327.723 324.96ZM333.768 315.245C334.366 314.216 334.995 313.127 335.661 311.974L333.435 310.689C332.769 311.842 332.141 312.929 331.546 313.954L333.768 315.245ZM335.661 311.974L337.177 309.346L334.952 308.061L333.435 310.689L335.661 311.974ZM340.211 304.091L343.245 298.837L341.02 297.552L337.986 302.806L340.211 304.091ZM346.279 293.582L349.313 288.327L347.088 287.042L344.054 292.297L346.279 293.582ZM352.347 283.072L355.381 277.817L353.155 276.532L350.122 281.787L352.347 283.072ZM358.415 272.562L361.449 267.307L359.223 266.022L356.189 271.277L358.415 272.562ZM364.483 262.052L366 259.424L363.774 258.139L362.257 260.767L364.483 262.052ZM366 259.424C366.666 258.271 367.295 257.182 367.887 256.149L365.658 254.871C365.067 255.899 364.44 256.986 363.774 258.139L366 259.424ZM371.578 249.509C372.219 248.286 372.786 247.143 373.278 246.057L370.937 244.996C370.47 246.026 369.927 247.122 369.302 248.315L371.578 249.509ZM373.278 246.057C373.612 245.319 373.909 244.613 374.169 243.934L371.768 243.016C371.529 243.641 371.253 244.298 370.937 244.996L373.278 246.057ZM375.418 239.383C375.54 238.569 375.598 237.773 375.598 236.976L373.028 236.976C373.028 237.646 372.979 238.315 372.876 239.003L375.418 239.383ZM375.598 236.976C375.598 236.178 375.54 235.382 375.418 234.569L372.876 234.949C372.979 235.637 373.028 236.306 373.028 236.976L375.598 236.976ZM374.169 230.018C373.909 229.338 373.612 228.633 373.278 227.895L370.937 228.955C371.253 229.654 371.529 230.311 371.768 230.936L374.169 230.018ZM373.278 227.895C372.786 226.808 372.219 225.666 371.578 224.443L369.302 225.637C369.927 226.829 370.47 227.926 370.937 228.955L373.278 227.895ZM367.887 217.802C367.295 216.77 366.666 215.681 366 214.527L363.774 215.813C364.44 216.966 365.067 218.052 365.658 219.081L367.887 217.802ZM366 214.527L364.483 211.9L362.257 213.185L363.774 215.813L366 214.527ZM361.449 206.645L358.415 201.39L356.189 202.675L359.223 207.93L361.449 206.645ZM355.381 196.135L352.347 190.88L350.122 192.165L353.155 197.42L355.381 196.135ZM349.313 185.625L346.279 180.37L344.054 181.655L347.088 186.91L349.313 185.625ZM343.245 175.115L340.211 169.86L337.986 171.145L341.02 176.4L343.245 175.115ZM337.177 164.605L335.66 161.978L333.435 163.263L334.952 165.89L337.177 164.605ZM335.66 161.978C334.995 160.825 334.366 159.735 333.768 158.706L331.546 159.997C332.141 161.023 332.769 162.109 333.435 163.263L335.66 161.978ZM329.862 152.19C329.124 151.023 328.418 149.961 327.723 148.991L325.634 150.489C326.292 151.407 326.97 152.426 327.69 153.564L329.862 152.19ZM327.723 148.991C327.251 148.333 326.788 147.723 326.329 147.158L324.334 148.778C324.756 149.298 325.187 149.865 325.634 150.489L327.723 148.991ZM323.013 143.801C322.369 143.289 321.709 142.84 321.019 142.442L319.734 144.667C320.314 145.002 320.868 145.379 321.413 145.812L323.013 143.801ZM321.019 142.442C320.328 142.043 319.609 141.696 318.844 141.394L317.902 143.785C318.55 144.04 319.154 144.332 319.734 144.667L321.019 142.442ZM314.278 140.201C313.56 140.086 312.801 139.99 311.994 139.911L311.742 142.468C312.505 142.543 313.212 142.633 313.873 142.738L314.278 140.201ZM311.994 139.91C310.807 139.793 309.535 139.713 308.154 139.657L308.05 142.225C309.396 142.279 310.617 142.357 311.742 142.468L311.994 139.91ZM300.558 139.533C299.368 139.53 298.11 139.529 296.779 139.529L296.779 142.1C298.111 142.1 299.365 142.1 300.551 142.103L300.558 139.533ZM210.505 140.095C209.52 140.663 208.602 141.311 207.724 142.053L209.383 144.016C210.147 143.37 210.941 142.811 211.79 142.32L210.505 140.095ZM203.268 146.978C202.126 148.535 200.965 150.323 199.712 152.374L201.905 153.714C203.14 151.693 204.258 149.973 205.34 148.498L203.268 146.978ZM196.464 157.867C195.954 158.747 195.424 159.665 194.871 160.623L197.097 161.908C197.65 160.95 198.179 160.033 198.688 159.156L196.464 157.867ZM194.832 160.696L194.832 160.696L197.136 161.835L197.136 161.835L194.832 160.696ZM194.832 160.696L194.832 160.696L197.136 161.835L197.136 161.835L194.832 160.696ZM194.871 160.623L193.354 163.25L195.58 164.535L197.097 161.908L194.871 160.623ZM190.32 168.505L187.286 173.76L189.512 175.045L192.546 169.79L190.32 168.505ZM184.252 179.015L181.218 184.27L183.444 185.555L186.478 180.3L184.252 179.015ZM178.184 189.525L175.15 194.78L177.376 196.065L180.41 190.81L178.184 189.525ZM172.116 200.035L169.082 205.29L171.308 206.575L174.342 201.32L172.116 200.035ZM166.048 210.545L164.531 213.173L166.757 214.458L168.274 211.83L166.048 210.545ZM164.531 213.173C163.979 214.13 163.448 215.049 162.941 215.93L165.169 217.211C165.675 216.332 166.204 215.416 166.757 214.458L164.531 213.173ZM159.808 221.489C158.658 223.6 157.69 225.499 156.913 227.268L159.266 228.302C160.002 226.627 160.932 224.798 162.065 222.719L159.808 221.489ZM154.876 233.589C154.673 234.719 154.57 235.838 154.57 236.976L157.14 236.976C157.14 235.995 157.228 235.028 157.405 234.044L154.876 233.589ZM154.57 236.976C154.57 238.113 154.673 239.232 154.876 240.363L157.405 239.908C157.228 238.923 157.14 237.957 157.14 236.976L154.57 236.976ZM156.913 246.684C157.69 248.453 158.658 250.352 159.808 252.463L162.065 251.233C160.932 249.154 160.002 247.325 159.266 245.65L156.913 246.684ZM162.941 258.021C163.448 258.903 163.979 259.822 164.531 260.779L166.757 259.494C166.204 258.536 165.675 257.62 165.169 256.741L162.941 258.021ZM164.531 260.779L166.048 263.407L168.274 262.122L166.757 259.494L164.531 260.779ZM169.082 268.662L172.116 273.917L174.342 272.632L171.308 267.377L169.082 268.662ZM175.15 279.172L178.184 284.427L180.41 283.142L177.376 277.887L175.15 279.172ZM181.218 289.682L184.252 294.937L186.478 293.652L183.444 288.397L181.218 289.682ZM187.286 300.191L190.32 305.446L192.546 304.161L189.512 298.906L187.286 300.191ZM193.354 310.701L194.871 313.329L197.097 312.044L195.58 309.416L193.354 310.701ZM194.871 313.329C195.424 314.287 195.954 315.205 196.464 316.085L198.688 314.796C198.179 313.918 197.65 313.002 197.097 312.044L194.871 313.329ZM199.712 321.578C200.965 323.629 202.126 325.417 203.268 326.974L205.34 325.454C204.258 323.979 203.139 322.259 201.905 320.238L199.712 321.578ZM207.724 331.899C208.602 332.64 209.52 333.288 210.505 333.857L211.79 331.631C210.941 331.141 210.147 330.582 209.383 329.936L207.724 331.899ZM210.505 333.857C211.49 334.426 212.51 334.897 213.591 335.286L214.462 332.868C213.52 332.529 212.639 332.122 211.79 331.631L210.505 333.857ZM220.084 336.683C222.004 336.894 224.133 337.005 226.536 337.064L226.599 334.495C224.232 334.436 222.183 334.328 220.364 334.128L220.084 336.683ZM232.916 337.13C233.933 337.132 234.994 337.132 236.1 337.132L236.1 334.562C234.993 334.562 233.935 334.562 232.921 334.56L232.916 337.13ZM236.1 337.132L239.134 337.132L239.134 334.562L236.1 334.562L236.1 337.132ZM245.202 337.132L251.269 337.132L251.269 334.562L245.202 334.562L245.202 337.132ZM257.337 337.132L263.405 337.132L263.405 334.562L257.337 334.562L257.337 337.132ZM269.473 337.132L275.541 337.132L275.541 334.562L269.473 334.562L269.473 337.132ZM281.609 337.132L287.677 337.132L287.677 334.562L281.609 334.562L281.609 337.132ZM293.745 337.132L296.779 337.132L296.779 334.562L293.745 334.562L293.745 337.132ZM296.779 337.132C297.885 337.132 298.945 337.132 299.962 337.13L299.957 334.56C298.943 334.562 297.885 334.562 296.779 334.562L296.779 337.132ZM306.343 337.064C308.745 337.005 310.874 336.894 312.795 336.683L312.514 334.128C310.695 334.328 308.646 334.436 306.279 334.495L306.343 337.064ZM319.288 335.286C320.368 334.897 321.388 334.426 322.374 333.857L321.089 331.631C320.239 332.122 319.358 332.529 318.417 332.868L319.288 335.286ZM322.374 333.857C323.359 333.288 324.277 332.64 325.154 331.899L323.496 329.936C322.731 330.582 321.938 331.141 321.089 331.631L322.374 333.857ZM329.61 326.974C330.753 325.417 331.914 323.629 333.166 321.578L330.973 320.238C329.739 322.259 328.62 323.979 327.538 325.454L329.61 326.974ZM336.414 316.085C336.924 315.205 337.454 314.287 338.007 313.329L335.782 312.044C335.229 313.002 334.7 313.918 334.191 314.796L336.414 316.085ZM338.007 313.329L339.524 310.701L337.299 309.416L335.782 312.044L338.007 313.329ZM342.558 305.446L345.592 300.191L343.367 298.906L340.333 304.161L342.558 305.446ZM348.626 294.936L351.66 289.681L349.435 288.396L346.401 293.651L348.626 294.936ZM354.694 284.427L357.728 279.172L355.502 277.887L352.468 283.142L354.694 284.427ZM360.762 273.917L363.796 268.662L361.57 267.377L358.536 272.632L360.762 273.917ZM366.83 263.407L368.347 260.779L366.121 259.494L364.604 262.122L366.83 263.407ZM368.347 260.779C368.9 259.821 369.43 258.903 369.937 258.021L367.709 256.74C367.203 257.62 366.675 258.536 366.121 259.494L368.347 260.779ZM373.07 252.462C374.22 250.352 375.188 248.453 375.965 246.684L373.613 245.65C372.876 247.325 371.946 249.154 370.813 251.233L373.07 252.462ZM378.003 240.363C378.206 239.232 378.308 238.113 378.308 236.976L375.738 236.976C375.738 237.957 375.65 238.923 375.473 239.908L378.003 240.363ZM378.308 236.976C378.308 235.838 378.206 234.719 378.003 233.589L375.473 234.044C375.65 235.028 375.738 235.995 375.738 236.976L378.308 236.976ZM375.965 227.268C375.188 225.499 374.22 223.6 373.07 221.489L370.813 222.719C371.946 224.798 372.876 226.627 373.613 228.302L375.965 227.268ZM369.937 215.93C369.43 215.049 368.9 214.13 368.347 213.173L366.121 214.458C366.674 215.416 367.203 216.332 367.709 217.211L369.937 215.93ZM368.347 213.173L366.83 210.545L364.604 211.83L366.121 214.458L368.347 213.173ZM363.796 205.29L360.762 200.035L358.536 201.32L361.57 206.575L363.796 205.29ZM357.728 194.78L354.694 189.525L352.468 190.81L355.502 196.065L357.728 194.78ZM351.66 184.27L348.626 179.015L346.401 180.3L349.434 185.555L351.66 184.27ZM345.592 173.76L342.558 168.505L340.333 169.79L343.367 175.045L345.592 173.76ZM339.524 163.25L338.007 160.623L335.782 161.908L337.299 164.535L339.524 163.25ZM338.007 160.623C337.454 159.665 336.924 158.747 336.414 157.867L334.191 159.156C334.699 160.034 335.228 160.95 335.782 161.908L338.007 160.623ZM333.166 152.374C331.914 150.323 330.753 148.535 329.61 146.978L327.538 148.498C328.62 149.973 329.739 151.693 330.973 153.714L333.166 152.374ZM325.154 142.053C324.277 141.311 323.359 140.663 322.374 140.095L321.089 142.32C321.938 142.811 322.731 143.37 323.496 144.016L325.154 142.053ZM322.374 140.095C321.388 139.526 320.368 139.055 319.288 138.666L318.417 141.084C319.358 141.423 320.239 141.83 321.089 142.32L322.374 140.095ZM312.795 137.269C310.874 137.058 308.745 136.947 306.343 136.888L306.279 139.457C308.646 139.515 310.695 139.624 312.514 139.824L312.795 137.269ZM299.962 136.821C298.945 136.82 297.885 136.82 296.779 136.82L296.779 139.39C297.885 139.39 298.943 139.39 299.957 139.391L299.962 136.821ZM296.779 136.82L293.745 136.82L293.745 139.39L296.779 139.39L296.779 136.82ZM287.677 136.82L281.609 136.82L281.609 139.39L287.677 139.39L287.677 136.82ZM275.541 136.82L269.473 136.82L269.473 139.39L275.541 139.39L275.541 136.82ZM263.405 136.82L257.337 136.82L257.337 139.39L263.405 139.39L263.405 136.82ZM251.269 136.82L245.202 136.82L245.202 139.39L251.269 139.39L251.269 136.82ZM239.134 136.82L236.1 136.82L236.1 139.39L239.134 139.39L239.134 136.82ZM236.1 136.82C234.994 136.82 233.933 136.82 232.916 136.821L232.921 139.391C233.935 139.39 234.993 139.39 236.1 139.39L236.1 136.82ZM226.536 136.888C224.133 136.947 222.004 137.058 220.084 137.269L220.365 139.824C222.183 139.624 224.232 139.515 226.599 139.457L226.536 136.888ZM213.591 138.666C212.51 139.055 211.49 139.526 210.505 140.095L211.79 142.32C212.639 141.83 213.52 141.423 214.462 141.084L213.591 138.666ZM205.223 128.106L206.508 130.332L208.733 129.047L207.448 126.821L205.223 128.106ZM131.423 0.282044L133.649 -1.00295L132.364 -3.22864L130.138 -1.94364L131.423 0.282044ZM201.968 129.986L199.742 131.271L201.027 133.496L203.253 132.211L201.968 129.986ZM128.168 2.16144L126.883 -0.0642466L124.657 1.22076L125.942 3.44644L128.168 2.16144ZM403.204 471.019L404.489 473.245L406.715 471.96L405.43 469.734L403.204 471.019ZM329.405 343.195L331.63 341.91L330.345 339.684L328.12 340.969L329.405 343.195ZM399.949 472.899L397.723 474.184L399.008 476.409L401.234 475.124L399.949 472.899ZM326.15 345.074L324.865 342.849L322.639 344.134L323.924 346.359L326.15 345.074ZM207.05 343.37L209.275 344.657L210.562 342.433L208.338 341.145L207.05 343.37ZM132.993 471.343L131.705 473.568L133.93 474.855L135.217 472.631L132.993 471.343ZM203.797 341.487L205.084 339.263L202.86 337.976L201.573 340.2L203.797 341.487ZM129.739 469.461L127.515 468.173L126.228 470.398L128.452 471.685L129.739 469.461ZM0.646913 235.55L0.644322 232.98L-1.92567 232.983L-1.92308 235.553L0.646913 235.55ZM148.504 235.401L151.074 235.398L151.072 232.828L148.502 232.831L148.504 235.401ZM0.650699 239.309L-1.91929 239.311L-1.91671 241.881L0.653297 241.879L0.650699 239.309ZM148.508 239.16L148.511 241.73L151.081 241.727L151.078 239.157L148.508 239.16ZM403.394 2.22117L405.618 3.50842L406.906 1.28402L404.681 -0.00322418L403.394 2.22117ZM329.336 130.195L328.049 132.419L330.273 133.706L331.561 131.482L329.336 130.195ZM400.141 0.338498L401.428 -1.8859L399.204 -3.17313L397.916 -0.948746L400.141 0.338498ZM326.083 128.312L323.859 127.025L322.571 129.249L324.796 130.536L326.083 128.312ZM391.592 235.186L391.589 232.616L389.019 232.618L389.022 235.188L391.592 235.186ZM530.455 235.045L533.025 235.043L533.023 232.473L530.453 232.475L530.455 235.045ZM391.595 238.944L389.025 238.947L389.028 241.517L391.598 241.514L391.595 238.944ZM530.459 238.804L530.461 241.374L533.031 241.372L533.029 238.802L530.459 238.804ZM296.779 140.815L296.779 143.385L296.779 140.815ZM236.1 140.814L236.1 138.244L236.1 140.814ZM311.868 141.189L311.616 143.747L311.868 141.189ZM320.376 143.554L319.091 145.78L319.091 145.78L320.376 143.554ZM326.678 149.74L324.589 151.237L324.589 151.237L326.678 149.74ZM372.107 228.425L369.766 229.486L372.107 228.425ZM374.313 236.976L371.743 236.976L371.743 236.976L374.313 236.976ZM372.107 245.527L369.766 244.466L369.766 244.466L372.107 245.527ZM364.887 258.782L367.113 260.067L364.887 258.782ZM334.548 311.331L332.322 310.046L334.548 311.331ZM326.678 324.212L328.767 325.709L328.767 325.709L326.678 324.212ZM311.868 332.763L312.12 335.32L312.12 335.32L311.868 332.763ZM296.779 333.137L296.779 330.567L296.779 333.137ZM236.1 333.137L236.1 335.707L236.1 333.137ZM221.01 332.763L221.262 330.205L221.262 330.205L221.01 332.763ZM212.502 330.397L213.787 328.172L212.502 330.397ZM206.2 324.212L204.111 325.709L204.111 325.709L206.2 324.212ZM160.771 245.527L158.43 246.587L160.771 245.527ZM158.565 236.976L161.135 236.976L161.135 236.976L158.565 236.976ZM160.771 228.425L158.43 227.365L160.771 228.425ZM167.991 215.17L165.766 213.885L167.991 215.17ZM198.331 162.62L200.556 163.905L198.331 162.62ZM206.2 149.74L208.289 151.237L208.289 151.237L206.2 149.74ZM221.01 141.189L221.262 143.747L221.262 143.747L221.01 141.189ZM195.984 161.265L193.758 159.98L193.717 160.052L193.68 160.126L195.984 161.265ZM236.1 138.105L236.1 135.535L236.1 138.105ZM296.779 138.105L296.779 140.675L296.779 138.105ZM321.731 141.208L323.016 138.982L321.731 141.208ZM377.023 236.976L374.453 236.976L374.453 236.976L377.023 236.976ZM367.234 260.137L369.46 261.422L367.234 260.137ZM336.895 312.686L334.669 311.401L336.895 312.686ZM296.779 335.847L296.779 333.277L296.779 333.277L296.779 335.847ZM236.1 335.847L236.1 338.417L236.1 335.847ZM211.147 332.744L209.862 334.97L211.147 332.744ZM155.855 236.976L153.285 236.976L153.285 236.976L155.855 236.976ZM165.644 213.815L167.87 215.1L165.644 213.815ZM195.984 161.265L198.209 162.55L198.251 162.479L198.288 162.405L195.984 161.265ZM203.938 125.881L203.124 126.351L205.694 130.802L206.508 130.332L203.938 125.881ZM201.496 127.29L200.683 127.76L203.253 132.211L204.066 131.742L201.496 127.29ZM204.193 128.701L202.774 126.243L198.323 128.813L199.742 131.271L204.193 128.701ZM199.936 121.326L197.097 116.41L192.646 118.98L195.484 123.896L199.936 121.326ZM194.259 111.494L191.42 106.577L186.969 109.147L189.807 114.064L194.259 111.494ZM188.582 101.661L185.743 96.7447L181.292 99.3147L184.13 104.231L188.582 101.661ZM182.905 91.8284L180.066 86.9121L175.615 89.4821L178.454 94.3984L182.905 91.8284ZM177.228 81.9957L174.39 77.0794L169.938 79.6494L172.777 84.5657L177.228 81.9957ZM171.551 72.1631L168.713 67.2468L164.261 69.8168L167.1 74.7331L171.551 72.1631ZM165.874 62.3304L163.036 57.4141L158.584 59.9841L161.423 64.9004L165.874 62.3304ZM160.197 52.4978L157.359 47.5815L152.908 50.1515L155.746 55.0678L160.197 52.4978ZM154.521 42.6652L151.682 37.7488L147.231 40.3188L150.069 45.2352L154.521 42.6652ZM148.844 32.8325L146.005 27.9162L141.554 30.4862L144.392 35.4025L148.844 32.8325ZM143.167 22.9999L140.328 18.0835L135.877 20.6535L138.715 25.5699L143.167 22.9999ZM137.49 13.1672L134.651 8.2509L130.2 10.8209L133.039 15.7372L137.49 13.1672ZM131.813 3.33457L130.394 0.876442L125.942 3.44644L127.362 5.90457L131.813 3.33457ZM129.453 4.38712L130.267 3.91727L127.697 -0.534095L126.883 -0.0642466L129.453 4.38712ZM131.895 2.97758L132.708 2.50773L130.138 -1.94364L129.325 -1.47379L131.895 2.97758ZM129.198 1.56705L130.617 4.02521L135.068 1.45521L133.649 -1.00295L129.198 1.56705ZM133.455 8.94153L136.294 13.8578L140.745 11.2878L137.907 6.37153L133.455 8.94153ZM139.132 18.7742L141.971 23.6905L146.422 21.1205L143.584 16.2042L139.132 18.7742ZM144.809 28.6068L147.647 33.5231L152.099 30.9531L149.26 26.0368L144.809 28.6068ZM150.486 38.4394L153.324 43.3558L157.776 40.7858L154.937 35.8694L150.486 38.4394ZM156.163 48.2721L159.001 53.1884L163.453 50.6184L160.614 45.7021L156.163 48.2721ZM161.84 58.1047L164.678 63.021L169.129 60.451L166.291 55.5347L161.84 58.1047ZM167.517 67.9374L170.355 72.8537L174.806 70.2837L171.968 65.3674L167.517 67.9374ZM173.193 77.77L176.032 82.6863L180.483 80.1163L177.645 75.2L173.193 77.77ZM178.87 87.6027L181.709 92.519L186.16 89.949L183.322 85.0327L178.87 87.6027ZM184.547 97.4353L187.386 102.352L191.837 99.7816L188.999 94.8653L184.547 97.4353ZM190.224 107.268L193.063 112.184L197.514 109.614L194.675 104.698L190.224 107.268ZM195.901 117.101L198.739 122.017L203.191 119.447L200.352 114.531L195.901 117.101ZM201.578 126.933L202.997 129.391L207.448 126.821L206.029 124.363L201.578 126.933ZM401.919 468.794L401.105 469.264L403.675 473.715L404.489 473.245L401.919 468.794ZM399.478 470.203L398.664 470.673L401.234 475.124L402.048 474.655L399.478 470.203ZM402.175 471.614L400.755 469.156L396.304 471.726L397.723 474.184L402.175 471.614ZM397.917 464.239L395.079 459.323L390.627 461.893L393.466 466.809L397.917 464.239ZM392.24 454.407L389.402 449.49L384.95 452.06L387.789 456.977L392.24 454.407ZM386.563 444.574L383.725 439.658L379.273 442.228L382.112 447.144L386.563 444.574ZM380.886 434.741L378.048 429.825L373.597 432.395L376.435 437.311L380.886 434.741ZM375.209 424.909L372.371 419.992L367.92 422.562L370.758 427.479L375.209 424.909ZM369.533 415.076L366.694 410.16L362.243 412.73L365.081 417.646L369.533 415.076ZM363.856 405.243L361.017 400.327L356.566 402.897L359.404 407.813L363.856 405.243ZM358.179 395.411L355.34 390.494L350.889 393.064L353.727 397.981L358.179 395.411ZM352.502 385.578L349.663 380.662L345.212 383.232L348.051 388.148L352.502 385.578ZM346.825 375.745L343.987 370.829L339.535 373.399L342.374 378.315L346.825 375.745ZM341.148 365.913L338.31 360.997L333.858 363.567L336.697 368.483L341.148 365.913ZM335.471 356.08L332.633 351.164L328.181 353.734L331.02 358.65L335.471 356.08ZM329.794 346.248L328.375 343.789L323.924 346.359L325.343 348.818L329.794 346.248ZM327.435 347.3L328.248 346.83L325.678 342.379L324.865 342.849L327.435 347.3ZM329.876 345.891L330.69 345.421L328.12 340.969L327.306 341.439L329.876 345.891ZM327.179 344.48L328.598 346.938L333.05 344.368L331.63 341.91L327.179 344.48ZM331.437 351.855L334.275 356.771L338.727 354.201L335.888 349.285L331.437 351.855ZM337.114 361.687L339.952 366.603L344.403 364.033L341.565 359.117L337.114 361.687ZM342.79 371.52L345.629 376.436L350.08 373.866L347.242 368.95L342.79 371.52ZM348.467 381.352L351.306 386.269L355.757 383.699L352.919 378.782L348.467 381.352ZM354.144 391.185L356.983 396.101L361.434 393.531L358.596 388.615L354.144 391.185ZM359.821 401.018L362.66 405.934L367.111 403.364L364.272 398.448L359.821 401.018ZM365.498 410.85L368.336 415.767L372.788 413.197L369.949 408.28L365.498 410.85ZM371.175 420.683L374.013 425.599L378.465 423.029L375.626 418.113L371.175 420.683ZM376.852 430.516L379.69 435.432L384.142 432.862L381.303 427.946L376.852 430.516ZM382.529 440.348L385.367 445.265L389.818 442.695L386.98 437.778L382.529 440.348ZM388.205 450.181L391.044 455.097L395.495 452.527L392.657 447.611L388.205 450.181ZM393.882 460.014L396.721 464.93L401.172 462.36L398.334 457.444L393.882 460.014ZM399.559 469.846L400.978 472.304L405.43 469.734L404.011 467.276L399.559 469.846ZM204.826 342.083L203.402 344.544L207.851 347.118L209.275 344.657L204.826 342.083ZM200.553 349.466L197.705 354.388L202.154 356.962L205.002 352.04L200.553 349.466ZM194.857 359.31L192.008 364.232L196.457 366.806L199.306 361.884L194.857 359.31ZM189.16 369.154L186.312 374.076L190.76 376.65L193.609 371.728L189.16 369.154ZM183.463 378.998L180.615 383.92L185.064 386.495L187.912 381.573L183.463 378.998ZM177.766 388.842L174.918 393.764L179.367 396.339L182.215 391.417L177.766 388.842ZM172.07 398.686L169.221 403.608L173.67 406.183L176.518 401.261L172.07 398.686ZM166.373 408.53L163.525 413.452L167.973 416.027L170.822 411.105L166.373 408.53ZM160.676 418.375L157.828 423.297L162.277 425.871L165.125 420.949L160.676 418.375ZM154.979 428.219L152.131 433.141L156.58 435.715L159.428 430.793L154.979 428.219ZM149.283 438.063L146.434 442.985L150.883 445.559L153.731 440.637L149.283 438.063ZM143.586 447.907L140.738 452.829L145.186 455.403L148.035 450.481L143.586 447.907ZM137.889 457.751L135.041 462.673L139.49 465.248L142.338 460.325L137.889 457.751ZM132.192 467.595L130.768 470.056L135.217 472.631L136.641 470.17L132.192 467.595ZM134.28 469.119L133.467 468.648L130.892 473.097L131.705 473.568L134.28 469.119ZM131.84 467.707L131.027 467.236L128.452 471.685L129.265 472.156L131.84 467.707ZM131.964 470.748L133.388 468.287L128.939 465.712L127.515 468.173L131.964 470.748ZM136.236 463.365L139.085 458.443L134.636 455.868L131.787 460.79L136.236 463.365ZM141.933 453.521L144.781 448.599L140.333 446.024L137.484 450.946L141.933 453.521ZM147.63 443.677L150.478 438.755L146.029 436.18L143.181 441.102L147.63 443.677ZM153.327 433.832L156.175 428.91L151.726 426.336L148.878 431.258L153.327 433.832ZM159.023 423.988L161.872 419.066L157.423 416.492L154.575 421.414L159.023 423.988ZM164.72 414.144L167.568 409.222L163.12 406.648L160.271 411.57L164.72 414.144ZM170.417 404.3L173.265 399.378L168.816 396.804L165.968 401.726L170.417 404.3ZM176.114 394.456L178.962 389.534L174.513 386.959L171.665 391.882L176.114 394.456ZM181.81 384.612L184.659 379.69L180.21 377.115L177.362 382.037L181.81 384.612ZM187.507 374.768L190.355 369.846L185.907 367.271L183.058 372.193L187.507 374.768ZM193.204 364.924L196.052 360.002L191.603 357.427L188.755 362.349L193.204 364.924ZM198.901 355.08L201.749 350.157L197.3 347.583L194.452 352.505L198.901 355.08ZM204.597 345.235L206.022 342.774L201.573 340.2L200.149 342.661L204.597 345.235ZM202.51 343.712L203.323 344.182L205.898 339.733L205.084 339.263L202.51 343.712ZM204.95 345.124L205.763 345.594L208.338 341.145L207.524 340.675L204.95 345.124ZM-1.92308 235.553L-1.92213 236.492L3.21786 236.487L3.21691 235.547L-1.92308 235.553ZM-1.92025 238.372L-1.91929 239.311L3.2207 239.306L3.21975 238.366L-1.92025 238.372ZM0.653297 241.879L3.49671 241.876L3.49152 236.736L0.648109 236.739L0.653297 241.879ZM9.18352 241.87L14.8703 241.864L14.8652 236.724L9.17833 236.73L9.18352 241.87ZM20.5572 241.859L26.244 241.853L26.2388 236.713L20.552 236.719L20.5572 241.859ZM31.9308 241.847L37.6176 241.841L37.6124 236.701L31.9256 236.707L31.9308 241.847ZM43.3044 241.836L48.9912 241.83L48.9861 236.69L43.2992 236.696L43.3044 241.836ZM54.6781 241.824L60.3649 241.818L60.3597 236.678L54.6729 236.684L54.6781 241.824ZM66.0517 241.813L71.7385 241.807L71.7333 236.667L66.0465 236.673L66.0517 241.813ZM77.4253 241.801L83.1122 241.795L83.107 236.655L77.4201 236.661L77.4253 241.801ZM88.799 241.79L94.4858 241.784L94.4806 236.644L88.7938 236.65L88.799 241.79ZM100.173 241.778L105.859 241.773L105.854 236.633L100.167 236.638L100.173 241.778ZM111.546 241.767L117.233 241.761L117.228 236.621L111.541 236.627L111.546 241.767ZM122.92 241.755L128.607 241.75L128.602 236.61L122.915 236.615L122.92 241.755ZM134.294 241.744L139.98 241.738L139.975 236.598L134.288 236.604L134.294 241.744ZM145.667 241.732L148.511 241.73L148.505 236.59L145.662 236.592L145.667 241.732ZM151.078 239.157L151.077 238.217L145.937 238.222L145.938 239.162L151.078 239.157ZM151.075 236.338L151.074 235.398L145.934 235.403L145.935 236.343L151.075 236.338ZM148.502 232.831L145.658 232.834L145.663 237.974L148.507 237.971L148.502 232.831ZM139.971 232.839L134.285 232.845L134.29 237.985L139.977 237.979L139.971 232.839ZM128.598 232.851L122.911 232.857L122.916 237.997L128.603 237.991L128.598 232.851ZM117.224 232.862L111.537 232.868L111.542 238.008L117.229 238.002L117.224 232.862ZM105.85 232.874L100.164 232.879L100.169 238.019L105.856 238.014L105.85 232.874ZM94.4768 232.885L88.79 232.891L88.7952 238.031L94.482 238.025L94.4768 232.885ZM83.1032 232.897L77.4163 232.902L77.4215 238.042L83.1083 238.037L83.1032 232.897ZM71.7295 232.908L66.0427 232.914L66.0479 238.054L71.7347 238.048L71.7295 232.908ZM60.3559 232.92L54.6691 232.925L54.6743 238.065L60.3611 238.06L60.3559 232.92ZM48.9822 232.931L43.2954 232.937L43.3006 238.077L48.9874 238.071L48.9822 232.931ZM37.6086 232.943L31.9218 232.948L31.927 238.088L37.6138 238.083L37.6086 232.943ZM26.235 232.954L20.5482 232.96L20.5533 238.1L26.2402 238.094L26.235 232.954ZM14.8613 232.966L9.17453 232.971L9.17971 238.111L14.8665 238.106L14.8613 232.966ZM3.48773 232.977L0.644322 232.98L0.649511 238.12L3.49291 238.117L3.48773 232.977ZM401.17 0.93393L399.745 3.39496L404.194 5.96945L405.618 3.50842L401.17 0.93393ZM396.897 8.31702L394.049 13.2391L398.497 15.8136L401.346 10.8915L396.897 8.31702ZM391.2 18.1611L388.352 23.0832L392.801 25.6577L395.649 20.7356L391.2 18.1611ZM385.504 28.0053L382.655 32.9273L387.104 35.5018L389.952 30.5798L385.504 28.0053ZM379.807 37.8494L376.958 42.7714L381.407 45.3459L384.256 40.4239L379.807 37.8494ZM374.11 47.6935L371.262 52.6156L375.71 55.19L378.559 50.268L374.11 47.6935ZM368.413 57.5376L365.565 62.4597L370.014 65.0342L372.862 60.1121L368.413 57.5376ZM362.717 67.3817L359.868 72.3038L364.317 74.8783L367.165 69.9562L362.717 67.3817ZM357.02 77.2258L354.171 82.1479L358.62 84.7224L361.469 79.8003L357.02 77.2258ZM351.323 87.07L348.475 91.992L352.923 94.5665L355.772 89.6445L351.323 87.07ZM345.626 96.9141L342.778 101.836L347.227 104.411L350.075 99.4886L345.626 96.9141ZM339.93 106.758L337.081 111.68L341.53 114.255L344.378 109.333L339.93 106.758ZM334.233 116.602L331.384 121.524L335.833 124.099L338.682 119.177L334.233 116.602ZM328.536 126.446L327.112 128.907L331.561 131.482L332.985 129.021L328.536 126.446ZM330.623 127.97L329.81 127.5L327.236 131.948L328.049 132.419L330.623 127.97ZM328.184 126.558L327.37 126.088L324.796 130.536L325.609 131.007L328.184 126.558ZM328.307 129.599L329.732 127.138L325.283 124.564L323.859 127.025L328.307 129.599ZM332.58 122.216L335.428 117.294L330.979 114.72L328.131 119.642L332.58 122.216ZM338.277 112.372L341.125 107.45L336.676 104.876L333.828 109.798L338.277 112.372ZM343.973 102.528L346.822 97.6059L342.373 95.0314L339.525 99.9535L343.973 102.528ZM349.67 92.6838L352.519 87.7618L348.07 85.1873L345.221 90.1093L349.67 92.6838ZM355.367 82.8397L358.215 77.9177L353.767 75.3432L350.918 80.2652L355.367 82.8397ZM361.064 72.9956L363.912 68.0735L359.463 65.499L356.615 70.4211L361.064 72.9956ZM366.76 63.1515L369.609 58.2294L365.16 55.6549L362.312 60.577L366.76 63.1515ZM372.457 53.3074L375.306 48.3853L370.857 45.8108L368.008 50.7329L372.457 53.3074ZM378.154 43.4632L381.002 38.5412L376.554 35.9667L373.705 40.8887L378.154 43.4632ZM383.851 33.6191L386.699 28.697L382.25 26.1226L379.402 31.0446L383.851 33.6191ZM389.547 23.775L392.396 18.8529L387.947 16.2784L385.099 21.2005L389.547 23.775ZM395.244 13.9309L398.093 9.00881L393.644 6.43431L390.795 11.3564L395.244 13.9309ZM400.941 4.08677L402.365 1.62574L397.916 -0.948746L396.492 1.51228L400.941 4.08677ZM398.853 2.56288L399.667 3.03356L402.241 -1.41522L401.428 -1.8859L398.853 2.56288ZM401.294 3.97489L402.107 4.44556L404.681 -0.00322418L403.868 -0.47389L401.294 3.97489ZM389.022 235.188L389.023 236.128L394.163 236.123L394.162 235.183L389.022 235.188ZM389.025 238.007L389.025 238.947L394.165 238.942L394.165 238.002L389.025 238.007ZM391.598 241.514L394.491 241.511L394.486 236.371L391.593 236.374L391.598 241.514ZM400.277 241.506L406.063 241.5L406.058 236.36L400.272 236.366L400.277 241.506ZM411.849 241.494L417.635 241.488L417.63 236.348L411.844 236.354L411.849 241.494ZM423.421 241.482L429.207 241.476L429.202 236.336L423.416 236.342L423.421 241.482ZM434.993 241.471L440.779 241.465L440.774 236.325L434.988 236.331L434.993 241.471ZM446.565 241.459L452.351 241.453L452.346 236.313L446.56 236.319L446.565 241.459ZM458.137 241.447L463.923 241.441L463.918 236.301L458.132 236.307L458.137 241.447ZM469.709 241.435L475.495 241.43L475.49 236.29L469.704 236.295L469.709 241.435ZM481.281 241.424L487.067 241.418L487.061 236.278L481.276 236.284L481.281 241.424ZM492.853 241.412L498.639 241.406L498.633 236.266L492.847 236.272L492.853 241.412ZM504.425 241.4L510.211 241.395L510.205 236.255L504.419 236.26L504.425 241.4ZM515.997 241.389L521.783 241.383L521.777 236.243L515.991 236.249L515.997 241.389ZM527.569 241.377L530.461 241.374L530.456 236.234L527.563 236.237L527.569 241.377ZM533.029 238.802L533.028 237.862L527.888 237.867L527.889 238.807L533.029 238.802ZM533.026 235.982L533.025 235.043L527.885 235.048L527.886 235.988L533.026 235.982ZM530.453 232.475L527.56 232.478L527.565 237.618L530.458 237.615L530.453 232.475ZM521.774 232.484L515.988 232.49L515.993 237.63L521.779 237.624L521.774 232.484ZM510.202 232.496L504.416 232.502L504.421 237.642L510.207 237.636L510.202 232.496ZM498.63 232.507L492.844 232.513L492.849 237.653L498.635 237.647L498.63 232.507ZM487.058 232.519L481.272 232.525L481.277 237.665L487.063 237.659L487.058 232.519ZM475.486 232.531L469.7 232.537L469.705 237.677L475.491 237.671L475.486 232.531ZM463.914 232.543L458.128 232.548L458.133 237.688L463.919 237.683L463.914 232.543ZM452.342 232.554L446.556 232.56L446.561 237.7L452.347 237.694L452.342 232.554ZM440.77 232.566L434.984 232.572L434.989 237.712L440.775 237.706L440.77 232.566ZM429.198 232.578L423.412 232.583L423.417 237.723L429.203 237.718L429.198 232.578ZM417.626 232.589L411.84 232.595L411.845 237.735L417.631 237.729L417.626 232.589ZM406.054 232.601L400.268 232.607L400.273 237.747L406.059 237.741L406.054 232.601ZM394.482 232.613L391.589 232.616L391.594 237.756L394.487 237.753L394.482 232.613ZM296.779 138.245L293.745 138.244L293.745 143.385L296.779 143.385L296.779 138.245ZM287.677 138.244L281.609 138.244L281.609 143.385L287.677 143.384L287.677 138.244ZM275.541 138.244L269.473 138.245L269.473 143.384L275.541 143.384L275.541 138.244ZM263.405 138.244L257.337 138.244L257.337 143.384L263.405 143.384L263.405 138.244ZM251.269 138.244L245.202 138.244L245.202 143.384L251.269 143.385L251.269 138.244ZM239.134 138.244L236.1 138.244L236.1 143.384L239.134 143.384L239.134 138.244ZM236.1 138.244C234.769 138.244 233.509 138.245 232.316 138.248L232.331 143.388C233.515 143.385 234.767 143.384 236.1 143.384L236.1 138.244ZM224.672 138.373C223.275 138.43 221.976 138.512 220.758 138.632L221.262 143.747C222.356 143.639 223.552 143.563 224.88 143.509L224.672 138.373ZM220.758 138.632C219.93 138.713 219.145 138.812 218.397 138.932L219.208 144.007C219.84 143.906 220.521 143.82 221.262 143.747L220.758 138.632ZM213.563 140.199C212.739 140.523 211.963 140.898 211.217 141.329L213.787 145.78C214.312 145.477 214.858 145.213 215.447 144.981L213.563 140.199ZM211.217 141.329C210.471 141.759 209.759 142.244 209.065 142.795L212.265 146.818C212.76 146.424 213.263 146.083 213.787 145.78L211.217 141.329ZM205.551 146.348C205.074 146.936 204.596 147.567 204.111 148.243L208.289 151.237C208.723 150.632 209.138 150.085 209.541 149.588L205.551 146.348ZM204.111 148.243C203.398 149.238 202.678 150.321 201.93 151.503L206.274 154.251C206.985 153.127 207.649 152.13 208.289 151.237L204.111 148.243ZM198 158.061C197.401 159.092 196.771 160.183 196.105 161.335L200.556 163.905C201.222 162.752 201.849 161.667 202.444 160.643L198 158.061ZM196.105 161.335L194.588 163.963L199.039 166.533L200.556 163.905L196.105 161.335ZM191.554 169.218L188.52 174.473L192.972 177.043L196.005 171.788L191.554 169.218ZM185.486 179.728L182.452 184.983L186.904 187.553L189.938 182.298L185.486 179.728ZM179.418 190.238L176.384 195.493L180.836 198.063L183.87 192.808L179.418 190.238ZM173.35 200.748L170.316 206.003L174.768 208.573L177.802 203.318L173.35 200.748ZM167.282 211.258L165.766 213.885L170.217 216.455L171.734 213.828L167.282 211.258ZM165.766 213.885C165.1 215.038 164.47 216.129 163.877 217.163L168.335 219.721C168.925 218.694 169.551 217.609 170.217 216.455L165.766 213.885ZM160.163 223.846C159.513 225.084 158.935 226.25 158.43 227.365L163.112 229.486C163.566 228.485 164.097 227.411 164.715 226.234L160.163 223.846ZM158.43 227.365C158.087 228.123 157.78 228.852 157.509 229.559L162.311 231.395C162.539 230.798 162.805 230.164 163.112 229.486L158.43 227.365ZM156.19 234.379C156.059 235.255 155.995 236.115 155.995 236.976L161.135 236.976C161.135 236.37 161.18 235.765 161.273 235.139L156.19 234.379ZM155.995 236.976C155.995 237.837 156.059 238.697 156.19 239.573L161.273 238.813C161.18 238.187 161.135 237.582 161.135 236.976L155.995 236.976ZM157.509 244.392C157.78 245.1 158.087 245.829 158.43 246.587L163.112 244.466C162.805 243.788 162.539 243.154 162.311 242.557L157.509 244.392ZM158.43 246.587C158.935 247.702 159.513 248.867 160.163 250.106L164.715 247.718C164.097 246.541 163.566 245.467 163.112 244.466L158.43 246.587ZM163.877 256.789C164.47 257.823 165.1 258.914 165.766 260.067L170.217 257.497C169.551 256.343 168.925 255.258 168.335 254.231L163.877 256.789ZM165.766 260.067L167.282 262.694L171.734 260.124L170.217 257.497L165.766 260.067ZM170.316 267.949L173.35 273.204L177.802 270.634L174.768 265.379L170.316 267.949ZM176.384 278.459L179.418 283.714L183.87 281.144L180.836 275.889L176.384 278.459ZM182.452 288.969L185.486 294.224L189.938 291.654L186.904 286.399L182.452 288.969ZM188.52 299.479L191.554 304.734L196.005 302.164L192.972 296.909L188.52 299.479ZM194.588 309.989L196.105 312.616L200.556 310.046L199.039 307.419L194.588 309.989ZM196.105 312.616C196.771 313.769 197.401 314.86 198 315.891L202.444 313.309C201.849 312.285 201.222 311.2 200.556 310.046L196.105 312.616ZM201.93 322.449C202.678 323.631 203.398 324.714 204.111 325.709L208.289 322.715C207.649 321.821 206.985 320.824 206.274 319.701L201.93 322.449ZM204.111 325.709C204.596 326.385 205.074 327.016 205.551 327.604L209.541 324.363C209.138 323.867 208.723 323.32 208.289 322.715L204.111 325.709ZM209.065 331.156C209.759 331.708 210.471 332.192 211.217 332.623L213.787 328.172C213.263 327.869 212.76 327.528 212.265 327.134L209.065 331.156ZM211.217 332.623C211.963 333.054 212.739 333.429 213.563 333.753L215.447 328.971C214.858 328.739 214.312 328.475 213.787 328.172L211.217 332.623ZM218.397 335.02C219.145 335.14 219.93 335.238 220.758 335.32L221.262 330.205C220.521 330.132 219.839 330.045 219.208 329.945L218.397 335.02ZM220.758 335.32C221.976 335.44 223.275 335.522 224.672 335.579L224.88 330.443C223.552 330.389 222.356 330.313 221.262 330.205L220.758 335.32ZM232.316 335.704C233.509 335.707 234.769 335.707 236.1 335.707L236.1 330.567C234.767 330.567 233.515 330.567 232.331 330.564L232.316 335.704ZM236.1 335.707L239.134 335.707L239.134 330.567L236.1 330.567L236.1 335.707ZM245.202 335.707L251.269 335.707L251.269 330.567L245.202 330.567L245.202 335.707ZM257.337 335.707L263.405 335.707L263.405 330.567L257.337 330.567L257.337 335.707ZM269.473 335.707L275.541 335.707L275.541 330.567L269.473 330.567L269.473 335.707ZM281.609 335.707L287.677 335.707L287.677 330.567L281.609 330.567L281.609 335.707ZM293.745 335.707L296.779 335.707L296.779 330.567L293.745 330.567L293.745 335.707ZM296.779 335.707C298.11 335.707 299.37 335.707 300.562 335.704L300.548 330.564C299.364 330.567 298.111 330.567 296.779 330.567L296.779 335.707ZM308.206 335.579C309.604 335.522 310.902 335.44 312.12 335.32L311.616 330.205C310.522 330.313 309.327 330.389 307.998 330.443L308.206 335.579ZM312.12 335.32C312.948 335.239 313.733 335.14 314.481 335.02L313.67 329.945C313.039 330.045 312.357 330.132 311.616 330.205L312.12 335.32ZM319.315 333.753C320.139 333.429 320.915 333.054 321.661 332.623L319.091 328.172C318.566 328.475 318.02 328.739 317.432 328.971L319.315 333.753ZM321.661 332.623C322.407 332.192 323.12 331.708 323.813 331.156L320.613 327.134C320.118 327.528 319.616 327.869 319.091 328.172L321.661 332.623ZM327.327 327.604C327.804 327.016 328.283 326.385 328.767 325.709L324.589 322.715C324.155 323.32 323.74 323.867 323.337 324.363L327.327 327.604ZM328.767 325.709C329.48 324.714 330.2 323.631 330.948 322.449L326.604 319.701C325.894 320.824 325.23 321.821 324.589 322.715L328.767 325.709ZM334.879 315.891C335.478 314.86 336.108 313.769 336.773 312.616L332.322 310.046C331.656 311.2 331.029 312.285 330.435 313.309L334.879 315.891ZM336.773 312.616L338.29 309.989L333.839 307.419L332.322 310.046L336.773 312.616ZM341.324 304.734L344.358 299.479L339.907 296.909L336.873 302.164L341.324 304.734ZM347.392 294.224L350.426 288.969L345.975 286.399L342.941 291.654L347.392 294.224ZM353.46 283.714L356.494 278.459L352.043 275.889L349.009 281.144L353.46 283.714ZM359.528 273.204L362.562 267.949L358.111 265.379L355.077 270.634L359.528 273.204ZM365.596 262.694L367.113 260.067L362.661 257.497L361.145 260.124L365.596 262.694ZM367.113 260.067C367.778 258.914 368.408 257.823 369.002 256.789L364.543 254.231C363.954 255.258 363.328 256.343 362.661 257.497L367.113 260.067ZM372.716 250.106C373.365 248.867 373.943 247.702 374.448 246.587L369.766 244.466C369.313 245.467 368.781 246.541 368.164 247.718L372.716 250.106ZM374.448 246.587C374.792 245.829 375.099 245.1 375.369 244.392L370.568 242.557C370.34 243.154 370.074 243.788 369.766 244.466L374.448 246.587ZM376.689 239.573C376.82 238.697 376.883 237.837 376.883 236.976L371.743 236.976C371.743 237.582 371.699 238.187 371.605 238.813L376.689 239.573ZM376.883 236.976C376.883 236.115 376.82 235.255 376.689 234.379L371.605 235.139C371.699 235.765 371.743 236.37 371.743 236.976L376.883 236.976ZM375.369 229.559C375.099 228.852 374.792 228.123 374.448 227.365L369.766 229.486C370.074 230.164 370.34 230.798 370.568 231.395L375.369 229.559ZM374.448 227.365C373.943 226.25 373.365 225.084 372.715 223.846L368.164 226.234C368.781 227.411 369.313 228.485 369.766 229.486L374.448 227.365ZM369.002 217.163C368.408 216.129 367.778 215.038 367.113 213.885L362.662 216.455C363.328 217.609 363.954 218.694 364.543 219.721L369.002 217.163ZM367.113 213.885L365.596 211.258L361.145 213.828L362.662 216.455L367.113 213.885ZM362.562 206.003L359.528 200.748L355.077 203.318L358.111 208.573L362.562 206.003ZM356.494 195.493L353.46 190.238L349.009 192.808L352.043 198.063L356.494 195.493ZM350.426 184.983L347.392 179.728L342.941 182.298L345.975 187.553L350.426 184.983ZM344.358 174.473L341.324 169.218L336.873 171.788L339.907 177.043L344.358 174.473ZM338.29 163.963L336.773 161.335L332.322 163.905L333.839 166.533L338.29 163.963ZM336.773 161.335C336.108 160.183 335.478 159.092 334.879 158.061L330.435 160.643C331.029 161.667 331.656 162.752 332.322 163.905L336.773 161.335ZM330.948 151.503C330.201 150.321 329.48 149.238 328.767 148.243L324.589 151.237C325.23 152.13 325.894 153.127 326.604 154.251L330.948 151.503ZM328.767 148.243C328.282 147.567 327.804 146.936 327.327 146.348L323.337 149.588C323.74 150.085 324.155 150.632 324.589 151.237L328.767 148.243ZM323.813 142.795C323.12 142.244 322.407 141.759 321.661 141.329L319.091 145.78C319.616 146.083 320.118 146.424 320.613 146.818L323.813 142.795ZM321.661 141.329C320.915 140.898 320.139 140.523 319.315 140.199L317.432 144.981C318.02 145.213 318.566 145.477 319.091 145.78L321.661 141.329ZM314.481 138.932C313.733 138.812 312.948 138.713 312.12 138.632L311.616 143.747C312.357 143.82 313.039 143.906 313.67 144.007L314.481 138.932ZM312.12 138.632C310.902 138.512 309.604 138.43 308.206 138.373L307.998 143.509C309.327 143.563 310.522 143.639 311.616 143.747L312.12 138.632ZM300.562 138.248C299.37 138.245 298.11 138.244 296.779 138.245L296.779 143.385C298.111 143.385 299.364 143.385 300.548 143.388L300.562 138.248ZM209.862 138.982C208.809 139.59 207.829 140.282 206.895 141.071L210.212 144.998C210.92 144.4 211.651 143.884 212.432 143.433L209.862 138.982ZM202.233 146.217C201.059 147.816 199.877 149.638 198.615 151.704L203.002 154.383C204.227 152.378 205.324 150.692 206.376 149.258L202.233 146.217ZM195.353 157.222C194.842 158.103 194.311 159.023 193.758 159.98L198.21 162.55C198.763 161.592 199.291 160.677 199.799 159.801L195.353 157.222ZM193.68 160.126L193.68 160.126L198.288 162.404L198.288 162.404L193.68 160.126ZM193.68 160.126L193.68 160.126L198.288 162.405L198.288 162.404L193.68 160.126ZM193.758 159.98L192.241 162.608L196.693 165.178L198.209 162.55L193.758 159.98ZM189.207 167.863L186.173 173.118L190.625 175.688L193.659 170.433L189.207 167.863ZM183.139 178.373L180.105 183.628L184.557 186.198L187.591 180.943L183.139 178.373ZM177.071 188.883L174.037 194.138L178.489 196.708L181.523 191.453L177.071 188.883ZM171.003 199.393L167.97 204.648L172.421 207.218L175.455 201.963L171.003 199.393ZM164.936 209.903L163.419 212.53L167.87 215.1L169.387 212.473L164.936 209.903ZM163.419 212.53C162.866 213.488 162.335 214.407 161.827 215.29L166.284 217.852C166.788 216.974 167.317 216.058 167.87 215.1L163.419 212.53ZM158.68 220.874C157.522 223 156.535 224.935 155.737 226.751L160.442 228.819C161.158 227.19 162.069 225.397 163.194 223.334L158.68 220.874ZM153.611 233.362C153.395 234.565 153.285 235.76 153.285 236.976L158.425 236.976C158.425 236.074 158.506 235.183 158.67 234.271L153.611 233.362ZM153.285 236.976C153.285 238.192 153.395 239.387 153.611 240.59L158.67 239.681C158.506 238.769 158.425 237.878 158.425 236.976L153.285 236.976ZM155.737 247.201C156.535 249.017 157.522 250.951 158.68 253.077L163.194 250.618C162.069 248.554 161.158 246.761 160.442 245.133L155.737 247.201ZM161.827 258.662C162.335 259.545 162.866 260.464 163.419 261.422L167.87 258.852C167.317 257.893 166.788 256.978 166.284 256.1L161.827 258.662ZM163.419 261.422L164.936 264.049L169.387 261.479L167.87 258.852L163.419 261.422ZM167.97 269.304L171.004 274.559L175.455 271.989L172.421 266.734L167.97 269.304ZM174.037 279.814L177.071 285.069L181.523 282.499L178.489 277.244L174.037 279.814ZM180.105 290.324L183.139 295.579L187.591 293.009L184.557 287.754L180.105 290.324ZM186.173 300.834L189.207 306.089L193.659 303.519L190.625 298.264L186.173 300.834ZM192.241 311.344L193.758 313.971L198.21 311.401L196.693 308.774L192.241 311.344ZM193.758 313.971C194.311 314.929 194.842 315.848 195.353 316.729L199.799 314.151C199.291 313.275 198.763 312.36 198.21 311.401L193.758 313.971ZM198.615 322.247C199.877 324.314 201.059 326.136 202.232 327.734L206.376 324.694C205.324 323.26 204.227 321.574 203.002 319.568L198.615 322.247ZM206.895 332.881C207.829 333.67 208.809 334.362 209.862 334.97L212.432 330.519C211.651 330.068 210.92 329.552 210.212 328.954L206.895 332.881ZM209.862 334.97C210.915 335.578 212.005 336.081 213.155 336.495L214.897 331.659C214.025 331.345 213.214 330.97 212.432 330.519L209.862 334.97ZM219.943 337.96C221.914 338.176 224.083 338.289 226.504 338.349L226.631 333.21C224.281 333.152 222.273 333.045 220.505 332.851L219.943 337.96ZM232.914 338.415C233.932 338.417 234.994 338.417 236.1 338.417L236.1 333.277C234.993 333.277 233.936 333.277 232.923 333.275L232.914 338.415ZM236.1 338.417L239.134 338.417L239.134 333.277L236.1 333.277L236.1 338.417ZM245.202 338.417L251.269 338.417L251.269 333.277L245.202 333.277L245.202 338.417ZM257.337 338.417L263.405 338.417L263.405 333.277L257.337 333.277L257.337 338.417ZM269.473 338.417L275.541 338.417L275.541 333.277L269.473 333.277L269.473 338.417ZM281.609 338.417L287.677 338.417L287.677 333.277L281.609 333.277L281.609 338.417ZM293.745 338.417L296.779 338.417L296.779 333.277L293.745 333.277L293.745 338.417ZM296.779 338.417C297.884 338.417 298.946 338.417 299.964 338.415L299.955 333.275C298.942 333.277 297.885 333.277 296.779 333.277L296.779 338.417ZM306.374 338.349C308.795 338.289 310.964 338.176 312.935 337.96L312.373 332.851C310.605 333.045 308.597 333.152 306.248 333.21L306.374 338.349ZM319.723 336.495C320.873 336.081 321.963 335.578 323.016 334.97L320.446 330.519C319.665 330.97 318.853 331.345 317.981 331.659L319.723 336.495ZM323.016 334.97C324.069 334.362 325.049 333.67 325.983 332.881L322.666 328.954C321.959 329.552 321.227 330.068 320.446 330.519L323.016 334.97ZM330.646 327.734C331.819 326.136 333.001 324.314 334.263 322.247L329.876 319.568C328.652 321.574 327.554 323.259 326.502 324.694L330.646 327.734ZM337.526 316.729C338.037 315.848 338.567 314.929 339.12 313.971L334.669 311.401C334.116 312.36 333.587 313.275 333.079 314.151L337.526 316.729ZM339.12 313.971L340.637 311.344L336.186 308.774L334.669 311.401L339.12 313.971ZM343.671 306.089L346.705 300.834L342.254 298.264L339.22 303.519L343.671 306.089ZM349.739 295.579L352.773 290.324L348.322 287.754L345.288 293.009L349.739 295.579ZM355.807 285.069L358.841 279.814L354.39 277.244L351.356 282.499L355.807 285.069ZM361.875 274.559L364.909 269.304L360.458 266.734L357.424 271.989L361.875 274.559ZM367.943 264.049L369.46 261.422L365.008 258.852L363.491 261.479L367.943 264.049ZM369.46 261.422C370.013 260.464 370.544 259.545 371.051 258.662L366.595 256.1C366.09 256.978 365.562 257.893 365.008 258.852L369.46 261.422ZM374.198 253.077C375.357 250.951 376.344 249.017 377.142 247.201L372.436 245.133C371.721 246.761 370.809 248.554 369.685 250.618L374.198 253.077ZM379.267 240.59C379.484 239.387 379.593 238.192 379.593 236.976L374.453 236.976C374.453 237.878 374.372 238.769 374.208 239.681L379.267 240.59ZM379.593 236.976C379.593 235.76 379.484 234.565 379.267 233.362L374.208 234.271C374.372 235.183 374.453 236.074 374.453 236.976L379.593 236.976ZM377.142 226.751C376.344 224.935 375.357 223 374.198 220.874L369.685 223.334C370.809 225.397 371.721 227.19 372.436 228.819L377.142 226.751ZM371.051 215.29C370.543 214.407 370.013 213.488 369.46 212.53L365.008 215.1C365.562 216.058 366.09 216.974 366.595 217.852L371.051 215.29ZM369.46 212.53L367.943 209.903L363.491 212.473L365.008 215.1L369.46 212.53ZM364.909 204.648L361.875 199.393L357.423 201.963L360.457 207.218L364.909 204.648ZM358.841 194.138L355.807 188.883L351.356 191.453L354.39 196.708L358.841 194.138ZM352.773 183.628L349.739 178.373L345.288 180.943L348.322 186.198L352.773 183.628ZM346.705 173.118L343.671 167.863L339.22 170.433L342.254 175.688L346.705 173.118ZM340.637 162.608L339.12 159.98L334.669 162.55L336.186 165.178L340.637 162.608ZM339.12 159.98C338.567 159.023 338.037 158.103 337.526 157.222L333.079 159.801C333.587 160.677 334.116 161.592 334.669 162.55L339.12 159.98ZM334.263 151.705C333.001 149.638 331.819 147.816 330.646 146.217L326.502 149.258C327.554 150.692 328.652 152.378 329.876 154.384L334.263 151.705ZM325.983 141.071C325.049 140.282 324.069 139.59 323.016 138.982L320.446 143.433C321.227 143.884 321.959 144.4 322.666 144.998L325.983 141.071ZM323.016 138.982C321.963 138.374 320.873 137.871 319.723 137.457L317.981 142.292C318.853 142.607 319.665 142.982 320.446 143.433L323.016 138.982ZM312.935 135.992C310.964 135.775 308.795 135.663 306.374 135.603L306.248 140.742C308.597 140.8 310.605 140.907 312.373 141.101L312.935 135.992ZM299.964 135.536C298.946 135.535 297.884 135.535 296.779 135.535L296.779 140.675C297.885 140.675 298.942 140.675 299.955 140.676L299.964 135.536ZM296.779 135.535L293.745 135.535L293.745 140.675L296.779 140.675L296.779 135.535ZM287.677 135.535L281.609 135.535L281.609 140.675L287.677 140.675L287.677 135.535ZM275.541 135.535L269.473 135.535L269.473 140.675L275.541 140.675L275.541 135.535ZM263.405 135.535L257.337 135.535L257.337 140.675L263.405 140.675L263.405 135.535ZM251.269 135.535L245.202 135.535L245.202 140.675L251.269 140.675L251.269 135.535ZM239.134 135.535L236.1 135.535L236.1 140.675L239.134 140.675L239.134 135.535ZM236.1 135.535C234.994 135.535 233.932 135.535 232.914 135.536L232.923 140.676C233.936 140.675 234.993 140.675 236.1 140.675L236.1 135.535ZM226.504 135.603C224.083 135.663 221.914 135.775 219.943 135.992L220.505 141.101C222.273 140.907 224.281 140.799 226.631 140.742L226.504 135.603ZM213.155 137.457C212.005 137.871 210.915 138.374 209.862 138.982L212.432 143.433C213.214 142.982 214.025 142.607 214.897 142.292L213.155 137.457Z" fill="#F27F0C" mask="url(#path-1-inside-1_1_7079)"/>
</svg>
